<svg xmlns="http://www.w3.org/2000/svg" xmlns:xlink="http://www.w3.org/1999/xlink" version="1.1" data-diagram-type="DESCRIPTION" style="width:1040px;height:2087px;background:#FFFFFF;" width="1040px" height="2087px" viewBox="0 0 1040 2087" zoomAndPan="magnify" preserveAspectRatio="none" contentStyleType="text/css"><?plantuml 1.2026.8?><defs/><g font-family="sans-serif" lengthAdjust="spacing"><g class="title" data-source-line="15"><text x="399.814" y="25.107" fill="#000" font-size="14" textLength="233.871" font-weight="700" font-family="'Segoe UI'">Diagrama de casos de uso de Jobby</text></g><!--cluster Jobby--><g class="cluster" data-qualified-name="Jobby" id="ent0005" data-source-line="22"><rect x="319" y="51.621" width="565.5" height="1447" fill="none" style="stroke:#9DB8AF;stroke-width:1;" rx="2.5" ry="2.5"/><text x="581.905" y="68.729" fill="#000" font-size="14" textLength="39.689" font-weight="700" font-family="'Segoe UI'">Jobby</text></g><!--cluster Cuenta y acceso--><g class="cluster" data-qualified-name="Jobby.Cuenta y acceso" id="ent0006" data-source-line="23"><rect x="357.5" y="1046.621" width="205" height="311" fill="none" style="stroke:#9DB8AF;stroke-width:1;" rx="2.5" ry="2.5"/><text x="407.623" y="1063.729" fill="#000" font-size="14" textLength="104.754" font-weight="700" font-family="'Segoe UI'">Cuenta y acceso</text></g><!--cluster CV y perfil--><g class="cluster" data-qualified-name="Jobby.CV y perfil" id="ent0012" data-source-line="30"><rect x="374" y="96.621" width="484.5" height="145" fill="none" style="stroke:#9DB8AF;stroke-width:1;" rx="2.5" ry="2.5"/><text x="582.009" y="113.729" fill="#000" font-size="14" textLength="68.482" font-weight="700" font-family="'Segoe UI'">CV y perfil</text></g><!--cluster Puestos y compatibilidad--><g class="cluster" data-qualified-name="Jobby.Puestos y compatibilidad" id="ent0016" data-source-line="35"><rect x="356.5" y="257.621" width="512" height="391" fill="none" style="stroke:#9DB8AF;stroke-width:1;" rx="2.5" ry="2.5"/><text x="529.771" y="274.729" fill="#000" font-size="14" textLength="165.457" font-weight="700" font-family="'Segoe UI'">Puestos y compatibilidad</text></g><!--cluster Plan premium--><g class="cluster" data-qualified-name="Jobby.Plan premium" id="ent0025" data-source-line="45"><rect x="335" y="664.621" width="527.5" height="366" fill="none" style="stroke:#9DB8AF;stroke-width:1;" rx="2.5" ry="2.5"/><text x="552.566" y="681.729" fill="#000" font-size="14" textLength="92.367" font-weight="700" font-family="'Segoe UI'">Plan premium</text></g><!--cluster Administración--><g class="cluster" data-qualified-name="Jobby.Administraci.n" id="ent0032" data-source-line="53"><rect x="338.5" y="1373.621" width="243" height="109" fill="none" style="stroke:#9DB8AF;stroke-width:1;" rx="2.5" ry="2.5"/><text x="409.903" y="1390.729" fill="#000" font-size="14" textLength="100.194" font-weight="700" font-family="'Segoe UI'">Administración</text></g><!--entity V--><g class="entity" data-qualified-name="V" id="ent0001" data-source-line="17"><ellipse cx="188.636" cy="1205.621" rx="8" ry="8" fill="#F1F1F1" style="stroke:#0F6E56;stroke-width:0.5;"/><path d="M188.636,1213.621 L188.636,1240.621 M175.636,1221.621 L201.636,1221.621 M188.636,1240.621 L175.636,1255.621 M188.636,1240.621 L201.636,1255.621" style="stroke:#0F6E56;stroke-width:0.5;" fill="none"/><text x="162" y="1272.229" fill="#000" font-size="14" textLength="53.272" font-family="'Segoe UI'">Visitante</text></g><!--entity U--><g class="entity" data-qualified-name="U" id="ent0002" data-source-line="18"><ellipse cx="188.672" cy="503.621" rx="8" ry="8" fill="#F1F1F1" style="stroke:#0F6E56;stroke-width:0.5;"/><path d="M188.672,511.621 L188.672,538.621 M175.672,519.621 L201.672,519.621 M188.672,538.621 L175.672,553.621 M188.672,538.621 L201.672,553.621" style="stroke:#0F6E56;stroke-width:0.5;" fill="none"/><text x="140" y="570.229" fill="#000" font-size="14" textLength="97.344" font-family="'Segoe UI'">Persona usuaria</text></g><!--entity P--><g class="entity" data-qualified-name="P" id="ent0003" data-source-line="19"><ellipse cx="54.672" cy="749.621" rx="8" ry="8" fill="#F1F1F1" style="stroke:#0F6E56;stroke-width:0.5;"/><path d="M54.672,757.621 L54.672,784.621 M41.672,765.621 L67.672,765.621 M54.672,784.621 L41.672,799.621 M54.672,784.621 L67.672,799.621" style="stroke:#0F6E56;stroke-width:0.5;" fill="none"/><text x="6" y="816.229" fill="#000" font-size="14" textLength="97.344" font-family="'Segoe UI'">Persona usuaria</text><text x="6" y="834.85" fill="#000" font-size="14" textLength="55.85" font-family="'Segoe UI'">premium</text></g><!--entity A--><g class="entity" data-qualified-name="A" id="ent0004" data-source-line="20"><ellipse cx="188.513" cy="1402.621" rx="8" ry="8" fill="#F1F1F1" style="stroke:#0F6E56;stroke-width:0.5;"/><path d="M188.513,1410.621 L188.513,1437.621 M175.513,1418.621 L201.513,1418.621 M188.513,1437.621 L175.513,1452.621 M188.513,1437.621 L201.513,1452.621" style="stroke:#0F6E56;stroke-width:0.5;" fill="none"/><text x="144.5" y="1469.229" fill="#000" font-size="14" textLength="88.026" font-family="'Segoe UI'">Administrador</text><text x="144.5" y="1487.85" fill="#000" font-size="14" textLength="76.316" font-family="'Segoe UI'">(planificado)</text></g><!--entity ID--><g class="entity" data-qualified-name="ID" id="ent0034" data-source-line="58"><ellipse cx="758.892" cy="1982.742" rx="8" ry="8" fill="#F1F1F1" style="stroke:#0F6E56;stroke-width:0.5;"/><path d="M758.892,1990.742 L758.892,2017.742 M745.892,1998.742 L771.892,1998.742 M758.892,2017.742 L745.892,2032.742 M758.892,2017.742 L771.892,2032.742" style="stroke:#0F6E56;stroke-width:0.5;" fill="none"/><text x="712.5" y="2049.35" fill="#000" font-size="14" textLength="92.784" font-family="'Segoe UI'">Supabase Auth</text><text x="712.5" y="2067.971" fill="#000" font-size="14" textLength="71.395" font-family="'Segoe UI'">con Google</text><text x="728.882" y="1970.729" fill="#000" font-size="14" textLength="60.02" font-style="italic" font-family="'Segoe UI'">«sistema»</text></g><!--entity IA--><g class="entity" data-qualified-name="IA" id="ent0035" data-source-line="59"><ellipse cx="967.914" cy="1341.242" rx="8" ry="8" fill="#F1F1F1" style="stroke:#0F6E56;stroke-width:0.5;"/><path d="M967.914,1349.242 L967.914,1376.242 M954.914,1357.242 L980.914,1357.242 M967.914,1376.242 L954.914,1391.242 M967.914,1376.242 L980.914,1391.242" style="stroke:#0F6E56;stroke-width:0.5;" fill="none"/><text x="911.5" y="1407.85" fill="#000" font-size="14" textLength="112.827" font-family="'Segoe UI'">Proveedores de IA</text><text x="937.904" y="1329.229" fill="#000" font-size="14" textLength="60.02" font-style="italic" font-family="'Segoe UI'">«sistema»</text></g><!--entity W--><g class="entity" data-qualified-name="W" id="ent0036" data-source-line="60"><ellipse cx="758.961" cy="1541.742" rx="8" ry="8" fill="#F1F1F1" style="stroke:#0F6E56;stroke-width:0.5;"/><path d="M758.961,1549.742 L758.961,1576.742 M745.961,1557.742 L771.961,1557.742 M758.961,1576.742 L745.961,1591.742 M758.961,1576.742 L771.961,1591.742" style="stroke:#0F6E56;stroke-width:0.5;" fill="none"/><text x="709.5" y="1608.35" fill="#000" font-size="14" textLength="98.923" font-family="'Segoe UI'">Sitios de ofertas</text><text x="709.5" y="1626.971" fill="#000" font-size="14" textLength="62.686" font-family="'Segoe UI'">y LinkedIn</text><text x="728.952" y="1529.729" fill="#000" font-size="14" textLength="60.02" font-style="italic" font-family="'Segoe UI'">«sistema»</text></g><!--entity LS--><g class="entity" data-qualified-name="LS" id="ent0037" data-source-line="61"><ellipse cx="759.224" cy="1752.242" rx="8" ry="8" fill="#F1F1F1" style="stroke:#0F6E56;stroke-width:0.5;"/><path d="M759.224,1760.242 L759.224,1787.242 M746.224,1768.242 L772.224,1768.242 M759.224,1787.242 L746.224,1802.242 M759.224,1787.242 L772.224,1802.242" style="stroke:#0F6E56;stroke-width:0.5;" fill="none"/><text x="712.5" y="1818.85" fill="#000" font-size="14" textLength="93.447" font-family="'Segoe UI'">LemonSqueezy</text><text x="729.214" y="1740.229" fill="#000" font-size="14" textLength="60.02" font-style="italic" font-family="'Segoe UI'">«sistema»</text></g><!--entity EM--><g class="entity" data-qualified-name="EM" id="ent0038" data-source-line="62"><ellipse cx="759.151" cy="1867.242" rx="8" ry="8" fill="#F1F1F1" style="stroke:#0F6E56;stroke-width:0.5;"/><path d="M759.151,1875.242 L759.151,1902.242 M746.151,1883.242 L772.151,1883.242 M759.151,1902.242 L746.151,1917.242 M759.151,1902.242 L772.151,1917.242" style="stroke:#0F6E56;stroke-width:0.5;" fill="none"/><text x="707" y="1933.85" fill="#000" font-size="14" textLength="104.303" font-family="'Segoe UI'">Servicio de email</text><text x="729.142" y="1855.229" fill="#000" font-size="14" textLength="60.02" font-style="italic" font-family="'Segoe UI'">«sistema»</text></g><!--entity CU01--><g class="entity" data-qualified-name="Jobby.Cuenta y acceso.CU01" id="ent0007" data-source-line="24"><ellipse cx="459.893" cy="1108.8" rx="71.393" ry="16.679" fill="#F4F8F6" style="stroke:#0F6E56;stroke-width:0.5;"/><text x="409.789" y="1114.61" fill="#000" font-size="14" textLength="100.208" font-family="'Segoe UI'">Registrar cuenta</text></g><!--entity CU02--><g class="entity" data-qualified-name="Jobby.Cuenta y acceso.CU02" id="ent0008" data-source-line="25"><ellipse cx="460.173" cy="1159.788" rx="59.173" ry="16.167" fill="#F4F8F6" style="stroke:#0F6E56;stroke-width:0.5;"/><text x="420.453" y="1165.599" fill="#000" font-size="14" textLength="79.44" font-family="'Segoe UI'">Iniciar sesión</text></g><!--entity CU03--><g class="entity" data-qualified-name="Jobby.Cuenta y acceso.CU03" id="ent0009" data-source-line="26"><ellipse cx="460.07" cy="1213.435" rx="84.57" ry="19.314" fill="#F4F8F6" style="stroke:#0F6E56;stroke-width:0.5;"/><text x="393.089" y="1219.246" fill="#000" font-size="14" textLength="133.964" font-family="'Segoe UI'">Recuperar contraseña</text></g><!--entity CU04--><g class="entity" data-qualified-name="Jobby.Cuenta y acceso.CU04" id="ent0010" data-source-line="27"><ellipse cx="460.052" cy="1270.831" rx="86.552" ry="19.71" fill="#F4F8F6" style="stroke:#0F6E56;stroke-width:0.5;"/><text x="390.671" y="1276.642" fill="#000" font-size="14" textLength="138.763" font-family="'Segoe UI'">Autenticar con Google</text></g><!--entity CU22--><g class="entity" data-qualified-name="Jobby.Cuenta y acceso.CU22" id="ent0011" data-source-line="28"><ellipse cx="459.852" cy="1324.392" rx="69.352" ry="16.27" fill="#F4F8F6" style="stroke:#0F6E56;stroke-width:0.5;"/><text x="412.572" y="1330.202" fill="#000" font-size="14" textLength="94.562" font-family="'Segoe UI'">Eliminar cuenta</text></g><!--entity CU05--><g class="entity" data-qualified-name="Jobby.CV y perfil.CU05" id="ent0013" data-source-line="31"><ellipse cx="459.905" cy="157.788" rx="46.905" ry="16.167" fill="#F4F8F6" style="stroke:#0F6E56;stroke-width:0.5;"/><text x="428.859" y="163.599" fill="#000" font-size="14" textLength="62.091" font-family="'Segoe UI'">Cargar CV</text></g><!--entity CU06--><g class="entity" data-qualified-name="Jobby.CV y perfil.CU06" id="ent0014" data-source-line="32"><ellipse cx="758.762" cy="195.674" rx="83.262" ry="19.052" fill="#F4F8F6" style="stroke:#0F6E56;stroke-width:0.5;"/><text x="693.38" y="201.484" fill="#000" font-size="14" textLength="130.765" font-family="'Segoe UI'">Estructurar CV con IA</text></g><!--entity CU07--><g class="entity" data-qualified-name="Jobby.CV y perfil.CU07" id="ent0015" data-source-line="33"><ellipse cx="460.19" cy="208.559" rx="70.19" ry="16.438" fill="#F4F8F6" style="stroke:#0F6E56;stroke-width:0.5;"/><text x="411.741" y="214.37" fill="#000" font-size="14" textLength="96.899" font-family="'Segoe UI'">Confirmar perfil</text></g><!--entity CU08--><g class="entity" data-qualified-name="Jobby.Puestos y compatibilidad.CU08" id="ent0017" data-source-line="36"><ellipse cx="460.143" cy="319.45" rx="69.643" ry="16.329" fill="#F4F8F6" style="stroke:#0F6E56;stroke-width:0.5;"/><text x="412.455" y="325.26" fill="#000" font-size="14" textLength="95.375" font-family="'Segoe UI'">Analizar puesto</text></g><!--entity CU09--><g class="entity" data-qualified-name="Jobby.Puestos y compatibilidad.CU09" id="ent0018" data-source-line="37"><ellipse cx="459.965" cy="394.514" rx="87.465" ry="19.893" fill="#F4F8F6" style="stroke:#0F6E56;stroke-width:0.5;"/><text x="389.487" y="400.325" fill="#000" font-size="14" textLength="140.957" font-family="'Segoe UI'">Leer página del puesto</text></g><!--entity CU10--><g class="entity" data-qualified-name="Jobby.Puestos y compatibilidad.CU10" id="ent0019" data-source-line="38"><ellipse cx="759.234" cy="496.768" rx="93.734" ry="21.147" fill="#F4F8F6" style="stroke:#0F6E56;stroke-width:0.5;"/><text x="681.353" y="502.579" fill="#000" font-size="14" textLength="155.764" font-family="'Segoe UI'">Estructurar puesto con IA</text></g><!--entity CU11--><g class="entity" data-qualified-name="Jobby.Puestos y compatibilidad.CU11" id="ent0020" data-source-line="39"><ellipse cx="758.848" cy="323.591" rx="82.848" ry="18.97" fill="#F4F8F6" style="stroke:#0F6E56;stroke-width:0.5;"/><text x="693.975" y="329.401" fill="#000" font-size="14" textLength="129.746" font-family="'Segoe UI'">Calcular Match Score</text></g><!--entity CU12--><g class="entity" data-qualified-name="Jobby.Puestos y compatibilidad.CU12" id="ent0021" data-source-line="40"><ellipse cx="459.83" cy="452.587" rx="85.33" ry="19.466" fill="#F4F8F6" style="stroke:#0F6E56;stroke-width:0.5;"/><text x="391.925" y="458.398" fill="#000" font-size="14" textLength="135.81" font-family="'Segoe UI'">Consultar reporte ATS</text></g><!--entity CU13--><g class="entity" data-qualified-name="Jobby.Puestos y compatibilidad.CU13" id="ent0022" data-source-line="41"><ellipse cx="459.877" cy="506.396" rx="69.377" ry="16.275" fill="#F4F8F6" style="stroke:#0F6E56;stroke-width:0.5;"/><text x="412.562" y="512.207" fill="#000" font-size="14" textLength="94.63" font-family="'Segoe UI'">Ver Reality Gap</text></g><!--entity CU17--><g class="entity" data-qualified-name="Jobby.Puestos y compatibilidad.CU17" id="ent0023" data-source-line="42"><ellipse cx="460.021" cy="560.825" rx="86.521" ry="19.704" fill="#F4F8F6" style="stroke:#0F6E56;stroke-width:0.5;"/><text x="390.677" y="566.636" fill="#000" font-size="14" textLength="138.688" font-family="'Segoe UI'">Ver resumen del panel</text></g><!--entity CU18--><g class="entity" data-qualified-name="Jobby.Puestos y compatibilidad.CU18" id="ent0024" data-source-line="43"><ellipse cx="459.99" cy="615.719" rx="73.49" ry="17.098" fill="#F4F8F6" style="stroke:#0F6E56;stroke-width:0.5;"/><text x="407.059" y="621.53" fill="#000" font-size="14" textLength="105.861" font-family="'Segoe UI'">Valorar resultado</text></g><!--entity CU14--><g class="entity" data-qualified-name="Jobby.Plan premium.CU14" id="ent0026" data-source-line="46"><ellipse cx="459.903" cy="789.788" rx="60.903" ry="16.167" fill="#F4F8F6" style="stroke:#0F6E56;stroke-width:0.5;"/><text x="418.959" y="795.599" fill="#000" font-size="14" textLength="81.888" font-family="'Segoe UI'">Optimizar CV</text></g><!--entity CU15--><g class="entity" data-qualified-name="Jobby.Plan premium.CU15" id="ent0027" data-source-line="47"><ellipse cx="459.814" cy="844.384" rx="91.814" ry="20.763" fill="#F4F8F6" style="stroke:#0F6E56;stroke-width:0.5;"/><text x="384.178" y="850.195" fill="#000" font-size="14" textLength="151.272" font-family="'Segoe UI'">Generar kit de entrevista</text></g><!--entity CU16--><g class="entity" data-qualified-name="Jobby.Plan premium.CU16" id="ent0028" data-source-line="48"><ellipse cx="758.854" cy="819.492" rx="87.354" ry="19.871" fill="#F4F8F6" style="stroke:#0F6E56;stroke-width:0.5;"/><text x="688.509" y="825.302" fill="#000" font-size="14" textLength="140.69" font-family="'Segoe UI'">Verificar plan premium</text></g><!--entity CU19--><g class="entity" data-qualified-name="Jobby.Plan premium.CU19" id="ent0029" data-source-line="49"><ellipse cx="460.049" cy="732.531" rx="100.049" ry="22.41" fill="#F4F8F6" style="stroke:#0F6E56;stroke-width:0.5;"/><text x="374.894" y="738.342" fill="#000" font-size="14" textLength="170.311" font-family="'Segoe UI'">Suscribirse al plan premium</text></g><!--entity CU20--><g class="entity" data-qualified-name="Jobby.Plan premium.CU20" id="ent0030" data-source-line="50"><ellipse cx="460.09" cy="907.839" rx="109.09" ry="24.218" fill="#F4F8F6" style="stroke:#0F6E56;stroke-width:0.5;"/><text x="364.759" y="913.65" fill="#000" font-size="14" textLength="190.661" font-family="'Segoe UI'">Procesar evento de suscripción</text></g><!--entity CU21--><g class="entity" data-qualified-name="Jobby.Plan premium.CU21" id="ent0031" data-source-line="51"><ellipse cx="459.909" cy="992.503" rx="97.409" ry="21.882" fill="#F4F8F6" style="stroke:#0F6E56;stroke-width:0.5;"/><text x="377.776" y="998.314" fill="#000" font-size="14" textLength="164.268" font-family="'Segoe UI'">Enviar aviso de suscripción</text></g><!--entity CU23--><g class="entity" data-qualified-name="Jobby.Administraci.n.CU23" id="ent0033" data-source-line="54"><ellipse cx="459.981" cy="1442.617" rx="105.481" ry="23.496" fill="#F4F8F6" style="stroke:#0F6E56;stroke-width:0.5;"/><text x="368.684" y="1448.428" fill="#000" font-size="14" textLength="182.595" font-family="'Segoe UI'">Consultar métricas agregadas</text></g><g class="link" data-entity-1="ent0003" data-entity-2="ent0002" id="lnk39" data-link-type="extension"><polygon points="167.001,574.221,153.398,587.448,164.055,592.965,167.001,574.221" fill="none" style="stroke:#181818;stroke-width:1;stroke-linejoin:miter;stroke-miterlimit:10;"/><path d="M80.639,741.057 C105.698,692.649 135.438,635.196 158.726,590.206" style="stroke:#181818;stroke-width:1;" fill="none"/></g><g class="link" data-entity-1="ent0001" data-entity-2="ent0007" id="lnk40" data-link-type="dependency"><polygon points="388.212,1105.464,378.84,1102.436,383.239,1105.992,379.684,1110.391,388.212,1105.464" fill="#181818" style="stroke:#181818;stroke-width:1;stroke-linejoin:miter;stroke-miterlimit:10;"/><path d="M215.121,1231.743 C246.98,1225.135 298.683,1212.446 311,1197.621 C329.037,1175.911 299.622,1155.143 319,1134.621 C336.651,1115.928 358.094,1108.659 383.239,1105.992" style="stroke:#181818;stroke-width:1;" fill="none"/></g><g class="link" data-entity-1="ent0001" data-entity-2="ent0008" id="lnk41" data-link-type="dependency"><polygon points="400.816,1156.32,391.607,1152.828,395.824,1156.599,392.053,1160.815,400.816,1156.32" fill="#181818" style="stroke:#181818;stroke-width:1;stroke-linejoin:miter;stroke-miterlimit:10;"/><path d="M215.3,1241.557 C242.591,1245.175 285.198,1246.006 311,1222.621 C323.466,1211.323 306.93,1197.342 319,1185.621 C340.37,1164.868 367.649,1158.17 395.824,1156.599" style="stroke:#181818;stroke-width:1;" fill="none"/></g><g class="link" data-entity-1="ent0001" data-entity-2="ent0009" id="lnk42" data-link-type="dependency"><polygon points="375.396,1225.893,365.748,1223.917,370.512,1226.966,367.463,1231.73,375.396,1225.893" fill="#181818" style="stroke:#181818;stroke-width:1;stroke-linejoin:miter;stroke-miterlimit:10;"/><path d="M215.196,1241.953 C227.226,1244.188 241.785,1246.519 255,1247.621 C279.803,1249.689 287.076,1254.483 311,1247.621 C315.03,1246.465 315.108,1244.182 319,1242.621 C336.739,1235.507 351.589,1231.12 370.512,1226.966" style="stroke:#181818;stroke-width:1;" fill="none"/></g><g class="link" data-entity-1="ent0010" data-entity-2="ent0007" id="lnk43" data-link-type="dependency"><polygon points="388.49,1100.588,379.465,1096.646,383.49,1100.62,379.516,1104.646,388.49,1100.588" fill="#181818" style="stroke:#181818;stroke-width:1;stroke-linejoin:miter;stroke-miterlimit:10;"/><path d="M373.312,1267.406 C353.724,1263.092 334.24,1255.52 319,1242.621 C281.6,1210.965 255.294,1174.478 287,1137.121 C311.326,1108.46 347.444,1100.851 383.49,1100.62" style="stroke:#181818;stroke-width:1;stroke-dasharray:7,7;" fill="none"/><text x="257" y="1153.149" fill="#000" font-size="13" textLength="52.133" font-family="'Segoe UI'">«extend»</text></g><g class="link" data-entity-1="ent0010" data-entity-2="ent0008" id="lnk44" data-link-type="dependency"><polygon points="400.68,1146.792,392.203,1141.777,395.713,1146.213,391.277,1149.723,400.68,1146.792" fill="#181818" style="stroke:#181818;stroke-width:1;stroke-linejoin:miter;stroke-miterlimit:10;"/><path d="M373.14,1264.191 C354.205,1259.928 335.053,1253.185 319,1242.621 C291.266,1224.37 264.596,1199.622 287,1175.121 C314.878,1144.633 357.498,1141.759 395.713,1146.213" style="stroke:#181818;stroke-width:1;stroke-dasharray:7,7;" fill="none"/><text x="257" y="1191.149" fill="#000" font-size="13" textLength="52.133" font-family="'Segoe UI'">«extend»</text></g><g class="link" data-entity-1="ent0002" data-entity-2="ent0013" id="lnk45" data-link-type="dependency"><polygon points="412.958,156.659,403.765,153.124,407.964,156.914,404.173,161.113,412.958,156.659" fill="#181818" style="stroke:#181818;stroke-width:1;stroke-linejoin:miter;stroke-miterlimit:10;"/><path d="M190.154,495.074 C193.833,418.879 214.127,253.045 319,182.621 C346.569,164.108 378.82,158.402 407.964,156.914" style="stroke:#181818;stroke-width:1;" fill="none"/></g><g class="link" data-entity-1="ent0002" data-entity-2="ent0015" id="lnk46" data-link-type="dependency"><polygon points="389.696,219.279,379.967,217.749,384.867,220.575,382.041,225.476,389.696,219.279" fill="#181818" style="stroke:#181818;stroke-width:1;stroke-linejoin:miter;stroke-miterlimit:10;"/><path d="M196.957,494.802 C210.445,433.912 244.689,317.97 319,253.621 C338.782,236.491 360.338,227.16 384.867,220.575" style="stroke:#181818;stroke-width:1;" fill="none"/></g><g class="link" data-entity-1="ent0002" data-entity-2="ent0017" id="lnk47" data-link-type="dependency"><polygon points="390.355,333.343,380.595,332.021,385.555,334.742,382.834,339.702,390.355,333.343" fill="#181818" style="stroke:#181818;stroke-width:1;stroke-linejoin:miter;stroke-miterlimit:10;"/><path d="M210.544,494.869 C232.723,456.591 271.071,399.636 319,365.621 C340.072,350.666 361.509,341.75 385.555,334.742" style="stroke:#181818;stroke-width:1;" fill="none"/></g><g class="link" data-entity-1="ent0002" data-entity-2="ent0021" id="lnk48" data-link-type="dependency"><polygon points="374.339,467.539,364.698,465.526,369.451,468.593,366.384,473.346,374.339,467.539" fill="#181818" style="stroke:#181818;stroke-width:1;stroke-linejoin:miter;stroke-miterlimit:10;"/><path d="M237.01,512.716 C261.174,502.211 291.236,490.099 319,481.621 C336.686,476.221 351.047,472.561 369.451,468.593" style="stroke:#181818;stroke-width:1;" fill="none"/></g><g class="link" data-entity-1="ent0002" data-entity-2="ent0022" id="lnk49" data-link-type="dependency"><polygon points="390.42,513.746,381.055,510.698,385.447,514.263,381.881,518.655,390.42,513.746" fill="#181818" style="stroke:#181818;stroke-width:1;stroke-linejoin:miter;stroke-miterlimit:10;"/><path d="M237.061,529.68 C279.598,525.26 337.477,519.247 385.447,514.263" style="stroke:#181818;stroke-width:1;" fill="none"/></g><g class="link" data-entity-1="ent0002" data-entity-2="ent0023" id="lnk50" data-link-type="dependency"><polygon points="373.264,552.35,364.69,547.504,368.287,551.87,363.922,555.467,373.264,552.35" fill="#181818" style="stroke:#181818;stroke-width:1;stroke-linejoin:miter;stroke-miterlimit:10;"/><path d="M237.061,539.21 C274.687,542.84 323.231,547.523 368.287,551.87" style="stroke:#181818;stroke-width:1;" fill="none"/></g><g class="link" data-entity-1="ent0002" data-entity-2="ent0024" id="lnk51" data-link-type="dependency"><polygon points="386.229,619.651,377.275,615.549,381.23,619.594,377.184,623.548,386.229,619.651" fill="#181818" style="stroke:#181818;stroke-width:1;stroke-linejoin:miter;stroke-miterlimit:10;"/><path d="M223.74,574.225 C233.022,582.635 243.668,590.509 255,595.621 C295.872,614.059 340.93,619.136 381.23,619.594" style="stroke:#181818;stroke-width:1;" fill="none"/></g><g class="link" data-entity-1="ent0002" data-entity-2="ent0029" id="lnk52" data-link-type="dependency"><polygon points="407.843,709.941,401.446,702.453,403.331,707.786,397.998,709.671,407.843,709.941" fill="#181818" style="stroke:#181818;stroke-width:1;stroke-linejoin:miter;stroke-miterlimit:10;"/><path d="M216.871,574.276 C227.735,588.338 240.981,603.632 255,615.621 C301.854,655.69 359.898,687.041 403.331,707.786" style="stroke:#181818;stroke-width:1;" fill="none"/></g><g class="link" data-entity-1="ent0002" data-entity-2="ent0011" id="lnk53" data-link-type="dependency"><polygon points="390.375,1323.457,381.968,1318.325,385.417,1322.81,380.933,1326.258,390.375,1323.457" fill="#181818" style="stroke:#181818;stroke-width:1;stroke-linejoin:miter;stroke-miterlimit:10;"/><path d="M190.953,574.351 C195.909,699.421 214.16,1083.667 255,1200.621 C272.273,1250.086 275.371,1270.61 319,1299.621 C339.868,1313.497 361.238,1319.653 385.417,1322.81" style="stroke:#181818;stroke-width:1;" fill="none"/></g><g class="link" data-entity-1="ent0003" data-entity-2="ent0026" id="lnk54" data-link-type="dependency"><polygon points="398.732,789.621,389.732,785.621,393.732,789.621,389.732,793.621,398.732,789.621" fill="#181818" style="stroke:#181818;stroke-width:1;stroke-linejoin:miter;stroke-miterlimit:10;"/><path d="M103.371,789.621 C177.062,789.621 313.187,789.621 393.732,789.621" style="stroke:#181818;stroke-width:1;" fill="none"/></g><g class="link" data-entity-1="ent0003" data-entity-2="ent0027" id="lnk55" data-link-type="dependency"><polygon points="367.625,832.166,359.247,826.987,362.671,831.491,358.167,834.914,367.625,832.166" fill="#181818" style="stroke:#181818;stroke-width:1;stroke-linejoin:miter;stroke-miterlimit:10;"/><path d="M103.371,796.146 C168.294,804.996 280.605,820.305 362.671,831.491" style="stroke:#181818;stroke-width:1;" fill="none"/></g><g class="link" data-entity-1="ent0013" data-entity-2="ent0014" id="lnk56" data-link-type="dependency"><polygon points="675.284,185.038,666.864,179.928,670.324,184.403,665.849,187.863,675.284,185.038" fill="#181818" style="stroke:#181818;stroke-width:1;stroke-linejoin:miter;stroke-miterlimit:10;"/><path d="M507.08,163.517 C551.887,169.25 615.989,177.451 670.324,184.403" style="stroke:#181818;stroke-width:1;stroke-dasharray:7,7;" fill="none"/><text x="591.5" y="169.649" fill="#000" font-size="13" textLength="54.622" font-family="'Segoe UI'">«include»</text></g><g class="link" data-entity-1="ent0017" data-entity-2="ent0019" id="lnk57" data-link-type="dependency"><polygon points="734.038,475.459,729.812,466.563,730.243,472.204,724.603,472.635,734.038,475.459" fill="#181818" style="stroke:#181818;stroke-width:1;stroke-linejoin:miter;stroke-miterlimit:10;"/><path d="M513.695,336.202 C535.306,343.897 560.197,353.939 581.5,365.621 C640.222,397.822 697.586,444.183 730.243,472.204" style="stroke:#181818;stroke-width:1;stroke-dasharray:7,7;" fill="none"/><text x="591.5" y="365.649" fill="#000" font-size="13" textLength="54.622" font-family="'Segoe UI'">«include»</text></g><g class="link" data-entity-1="ent0017" data-entity-2="ent0020" id="lnk58" data-link-type="dependency"><polygon points="675.835,322.514,666.889,318.394,670.835,322.447,666.782,326.393,675.835,322.514" fill="#181818" style="stroke:#181818;stroke-width:1;stroke-linejoin:miter;stroke-miterlimit:10;"/><path d="M529.511,320.544 C573.109,321.131 624.82,321.827 670.835,322.447" style="stroke:#181818;stroke-width:1;stroke-dasharray:7,7;" fill="none"/><text x="591.5" y="315.649" fill="#000" font-size="13" textLength="54.622" font-family="'Segoe UI'">«include»</text></g><g class="link" data-entity-1="ent0018" data-entity-2="ent0017" id="lnk59" data-link-type="dependency"><polygon points="460,336.228,456,345.228,460,341.228,464,345.228,460,336.228" fill="#181818" style="stroke:#181818;stroke-width:1;stroke-linejoin:miter;stroke-miterlimit:10;"/><path d="M460,374.522 C460,362.547 460,352.529 460,341.228" style="stroke:#181818;stroke-width:1;stroke-dasharray:7,7;" fill="none"/><text x="420.5" y="360.899" fill="#000" font-size="13" textLength="52.133" font-family="'Segoe UI'">«extend»</text></g><g class="link" data-entity-1="ent0026" data-entity-2="ent0021" id="lnk60" data-link-type="dependency"><polygon points="374.242,456.097,364.59,454.136,369.36,457.177,366.319,461.947,374.242,456.097" fill="#181818" style="stroke:#181818;stroke-width:1;stroke-linejoin:miter;stroke-miterlimit:10;"/><path d="M398.688,793.642 C370.864,792.101 339.639,785.118 319,764.621 C256.839,702.888 271.878,656.413 287,570.121 C294.219,528.923 287.372,508.99 319,481.621 C334.402,468.293 349.406,461.592 369.36,457.177" style="stroke:#181818;stroke-width:1;stroke-dasharray:7,7;" fill="none"/><text x="257" y="586.149" fill="#000" font-size="13" textLength="52.133" font-family="'Segoe UI'">«extend»</text></g><g class="link" data-entity-1="ent0026" data-entity-2="ent0028" id="lnk61" data-link-type="dependency"><polygon points="671.244,810.858,662.691,805.974,666.269,810.355,661.887,813.933,671.244,810.858" fill="#181818" style="stroke:#181818;stroke-width:1;stroke-linejoin:miter;stroke-miterlimit:10;"/><path d="M521.102,795.692 C564.24,800.049 618.051,805.485 666.269,810.355" style="stroke:#181818;stroke-width:1;stroke-dasharray:7,7;" fill="none"/><text x="591.5" y="797.649" fill="#000" font-size="13" textLength="54.622" font-family="'Segoe UI'">«include»</text></g><g class="link" data-entity-1="ent0027" data-entity-2="ent0028" id="lnk62" data-link-type="dependency"><polygon points="671.234,832.984,661.81,830.12,666.272,833.598,662.794,838.06,671.234,832.984" fill="#181818" style="stroke:#181818;stroke-width:1;stroke-linejoin:miter;stroke-miterlimit:10;"/><path d="M552.19,841.965 C582.553,840.616 616.524,838.604 647.5,835.621 C655.218,834.878 658.26,834.591 666.272,833.598" style="stroke:#181818;stroke-width:1;stroke-dasharray:7,7;" fill="none"/><text x="591.5" y="830.649" fill="#000" font-size="13" textLength="54.622" font-family="'Segoe UI'">«include»</text></g><g class="link" data-entity-1="ent0031" data-entity-2="ent0030" id="lnk63" data-link-type="dependency"><polygon points="460,931.893,456,940.893,460,936.893,464,940.893,460,931.893" fill="#181818" style="stroke:#181818;stroke-width:1;stroke-linejoin:miter;stroke-miterlimit:10;"/><path d="M460,970.288 C460,958.483 460,948.976 460,936.893" style="stroke:#181818;stroke-width:1;stroke-dasharray:7,7;" fill="none"/><text x="420.5" y="956.649" fill="#000" font-size="13" textLength="52.133" font-family="'Segoe UI'">«extend»</text></g><g class="link" data-entity-1="ent0004" data-entity-2="ent0033" id="lnk64" data-link-type="dependency"><polygon points="354.498,1442.621,345.498,1438.621,349.498,1442.621,345.498,1446.621,354.498,1442.621" fill="#181818" style="stroke:#181818;stroke-width:1;stroke-linejoin:miter;stroke-miterlimit:10;"/><path d="M232.501,1442.621 C265.343,1442.621 307.033,1442.621 349.498,1442.621" style="stroke:#181818;stroke-width:1;" fill="none"/></g><g class="link" data-entity-1="ent0008" data-entity-2="ent0034" id="lnk65" data-link-type="association"><path d="M519.034,1157.518 C542.048,1159.954 566.543,1167.303 581.5,1185.621 C594.097,1201.049 579.956,1885.139 589.5,1902.621 C603.139,1927.603 667.356,1965.594 712.445,1990.014" style="stroke:#181818;stroke-width:1;" fill="none"/></g><g class="link" data-entity-1="ent0010" data-entity-2="ent0034" id="lnk66" data-link-type="association"><path d="M546.66,1276.381 C560.156,1281.106 572.575,1288.436 581.5,1299.621 C603.921,1327.719 569.133,1917 589.5,1946.621 C616.968,1986.57 672.365,2002.701 712.149,2009.214" style="stroke:#181818;stroke-width:1;" fill="none"/></g><g class="link" data-entity-1="ent0014" data-entity-2="ent0035" id="lnk67" data-link-type="association"><path d="M833.444,214.739 C853.082,223.416 872.234,235.866 884.5,253.621 C945.404,341.782 962.719,1111.022 966.244,1313.797" style="stroke:#181818;stroke-width:1;" fill="none"/></g><g class="link" data-entity-1="ent0019" data-entity-2="ent0035" id="lnk68" data-link-type="association"><path d="M782.232,517.811 C811.238,546.951 861.046,602.434 884.5,660.621 C932.613,779.985 957.268,1175.011 964.606,1313.849" style="stroke:#181818;stroke-width:1;" fill="none"/></g><g class="link" data-entity-1="ent0026" data-entity-2="ent0035" id="lnk69" data-link-type="association"><path d="M521.119,787.281 C543.468,789.764 566.912,797.019 581.5,814.621 C589.46,824.226 588.148,1251.22 589.5,1263.621 C607.984,1433.107 533.542,1531.667 665.5,1639.621 C703.168,1670.437 845.484,1668.711 884.5,1639.621 C921.208,1612.253 947.506,1483.131 959.581,1411.242" style="stroke:#181818;stroke-width:1;" fill="none"/></g><g class="link" data-entity-1="ent0027" data-entity-2="ent0035" id="lnk70" data-link-type="association"><path d="M552.137,853.213 C563.507,858.021 573.818,864.892 581.5,874.621 C595.238,892.019 573.747,1657.025 589.5,1672.621 C637.508,1720.15 840.507,1714.519 893.5,1672.621 C934.014,1640.589 954.532,1490.322 962.669,1411.369" style="stroke:#181818;stroke-width:1;" fill="none"/></g><g class="link" data-entity-1="ent0018" data-entity-2="ent0036" id="lnk71" data-link-type="association"><path d="M547.608,401.458 C560.747,406.297 572.799,413.637 581.5,424.621 C592.023,437.904 586.828,1017.887 589.5,1034.621 C618.201,1214.395 694.146,1416.941 733.532,1514.268" style="stroke:#181818;stroke-width:1;" fill="none"/></g><g class="link" data-entity-1="ent0030" data-entity-2="ent0037" id="lnk72" data-link-type="association"><path d="M547.596,931.622 C560.998,939.1 573.144,948.87 581.5,961.621 C592.904,979.024 577.549,1693.589 589.5,1710.621 C617.125,1749.992 672.49,1764.793 712.224,1770.338" style="stroke:#181818;stroke-width:1;" fill="none"/></g><g class="link" data-entity-1="ent0031" data-entity-2="ent0038" id="lnk73" data-link-type="association"><path d="M549.275,1014.705 C561.974,1021.624 573.446,1030.705 581.5,1042.621 C592.607,1059.054 581.747,1738.365 589.5,1756.621 C611.362,1808.098 665.755,1844.671 706.874,1866.072" style="stroke:#181818;stroke-width:1;" fill="none"/></g><?plantuml-src ZLNDSk964BxhAIRaaXns2mc3SMhBLLeCBb8ueLOnU_6bBJNobAKPPNv8iEE7oJ77L1x1BvRM20cG89KJhUbllkwlfxlvfb2Gvi0os4fhcCxHW00lmxLXHZB5qoV34gumDbmAJpzpKO22dEadIEHlNAHi3Pd60q-2Qx2PcKbXVe8SMI_2L2Axd_SEG5PZ31hPgyVOPuYVKoMjI2OoaufzExkOZMUZqYDLWcftsf-DfiEHztR00h4Xp-l_G9O2GAGPTj5NDv_7uOpGXXlott18wGQG3aOfIbqQLilovqVv-BZrl2fiRyKr9rA3FGQQhUhZ9Iej1T0T2ug3SzwVSJw8Gc7ERUvGoneL9ZaNN1j5DLOFuhiY0y7NFARFxnqozBozefvBg-UK7PnEB0e3R4jLYb7Boi-QolU-OEf2A1Oxf2EUtFVzOzXSy9WJIAFcx_-86XMqoM9Re2EZTrTqzlvtmpWuneRMK3nIuy3iLahAjyPU76Ed6QTIj7CCokXlBRahaaefh7dMaJe1bHB7P5L76RQYK1riRAno89VLFAonenQN56kkSaBMmIhOPJUbfKLjg86sn9WNOFWZptW2IIU_K436NqfATwEc71-Z5eY4UFypfO9GDsOjzDLvJHNmM9VVRzSeYsr6u3imyHEBOgdgH_7zJWaqJJXX5HPI6MJXBr6DRJN6YdB-WYJFRDaj53Lgq4Kfr3P7KIa3WNLb_SiM5cXieS9J4abT07zyuWLeS5WpOgsg_rmOQgwNmyRmM-rtYy8rzJCtvVnJ2ohSqDJKZUWFEphSd5B9Zo9Nu5OdHLR7Ydf2qGTa9s-qtdIf98qoiUE6Kd4hIJkI8ZwOpQ3ribEnAGSOAF6pL_nkxVPBQ8TyFTS5-VjVHf5gpMXrOWe9w9ftu7ZVcfqPsG8Uo-kq19uUH6l-vpViqoTDCJ67w-jcPogvGQHDY6uNxpfu7fx2Hfp-fnnChb4Pq0zYonPSF6CohyH-FNLjWRaKqQyMyMNhK8le93kg3Mr3LqLox8P_UdU4zPRimuS_hcddUokohgkTsfZ1tXnuvS9Z7oi8-u5ey7VQZGcn77Y2OuztNzyVxitBlJbkJ9h5nXpipJtMFy1UDIPjrsLzUh4tXrwPr91zhB8QkQouY3ERO9NmUEVp-__Xyxk-gvtGSRi4_gu4Vd3AKxcwUVZ3yxx0hnY3VgkeOIr-u6G6z4djM3r3OuwS6NfEOcDUxCrXOv8eChzwBXHPYwYAJkRqxby0?></g></svg>