<svg xmlns="http://www.w3.org/2000/svg" xmlns:xlink="http://www.w3.org/1999/xlink" version="1.1" data-diagram-type="DESCRIPTION" style="width:940px;height:1110px;background:#FFFFFF;" width="940px" height="1110px" viewBox="0 0 940 1110" zoomAndPan="magnify" preserveAspectRatio="none" contentStyleType="text/css"><?plantuml 1.2026.8?><defs/><g font-family="sans-serif" lengthAdjust="spacing"><g class="title" data-source-line="15"><text x="181.758" y="23.132" fill="#000" font-size="14" textLength="570.247" font-weight="700" font-family="Arial">Despliegue en producción: dónde corre cada componente y dónde viven los secretos</text></g><!--entity U--><g class="entity" data-qualified-name="U" id="ent0001" data-source-line="17"><ellipse cx="169.541" cy="225.099" rx="8" ry="8" fill="#D5EBE3" style="stroke:#181818;stroke-width:0.5;"/><path d="M169.541,233.099 L169.541,260.099 M156.541,241.099 L182.541,241.099 M169.541,260.099 L156.541,275.099 M169.541,260.099 L182.541,275.099" style="stroke:#181818;stroke-width:0.5;" fill="none"/><text x="94.5" y="287.854" fill="#000" font-size="12" textLength="87.387" font-family="Arial">Persona usuaria</text><text x="94.5" y="301.653" fill="#000" font-size="12" textLength="150.082" font-family="Arial">cualquier conexión, sin VPN</text></g><!--entity ADM--><g class="entity" data-qualified-name="ADM" id="ent0002" data-source-line="18"><ellipse cx="394.547" cy="57.599" rx="8" ry="8" fill="#FFF4D6" style="stroke:#181818;stroke-width:0.5;"/><path d="M394.547,65.599 L394.547,92.599 M381.547,73.599 L407.547,73.599 M394.547,92.599 L381.547,107.599 M394.547,92.599 L407.547,107.599" style="stroke:#181818;stroke-width:0.5;" fill="none"/><text x="316.5" y="120.354" fill="#000" font-size="12" textLength="127.4" font-family="Arial">Persona administradora</text><text x="316.5" y="134.153" fill="#000" font-size="12" textLength="156.094" font-family="Arial">(paneles de cada plataforma)</text></g><!--entity WEB--><g class="entity" data-qualified-name="WEB" id="ent0003" data-source-line="20"><rect x="168.5" y="384.099" width="337.502" height="130.391" fill="#D6E2F3" style="stroke:#4A5568;stroke-width:0.5;" rx="2.5" ry="2.5"/><text x="178.5" y="405.354" fill="#000" font-size="12" textLength="190.096" font-family="Arial">Vercel · https://jobbyweb.vercel.app</text><text x="178.5" y="419.153" fill="#000" font-size="12" textLength="127.377" font-family="Arial">Web Next.js (apps/web)</text><text x="178.5" y="432.952" fill="#000" font-size="12" font-family="Arial"> </text><text x="178.5" y="446.751" fill="#000" font-size="12" textLength="304.189" font-family="Arial">Variables del panel (públicas por diseño, van en el build):</text><text x="178.5" y="460.55" fill="#000" font-size="12" textLength="317.502" font-family="Arial">NEXT_PUBLIC_API_URL, URL y clave anon de Supabase,</text><text x="178.5" y="474.349" fill="#000" font-size="12" textLength="132.738" font-family="Arial">precios mensual y anual.</text><text x="178.5" y="488.147" fill="#000" font-size="12" textLength="298.781" font-family="Arial">Sin NEXT_PUBLIC_SENTRY_DSN, Sentry no se activa</text><text x="178.5" y="501.946" fill="#000" font-size="12" textLength="140.074" font-family="Arial">(verificado el 2026-09-23).</text></g><!--entity API--><g class="entity" data-qualified-name="API" id="ent0004" data-source-line="22"><rect x="359" y="579.099" width="528.799" height="157.988" fill="#D6E2F3" style="stroke:#4A5568;stroke-width:0.5;" rx="2.5" ry="2.5"/><text x="369" y="600.354" fill="#000" font-size="12" textLength="258.123" font-family="Arial">Render · https://jobmatch-api-9xel.onrender.com</text><text x="369" y="614.153" fill="#000" font-size="12" textLength="266.818" font-family="Arial">API FastAPI en Docker, plan gratuito, puerto 8000</text><text x="369" y="627.952" fill="#000" font-size="12" font-family="Arial"> </text><text x="369" y="641.751" fill="#000" font-size="12" textLength="269.443" font-family="Arial">Secretos (render.yaml los declara con sync: false):</text><text x="369" y="655.55" fill="#000" font-size="12" textLength="442.852" font-family="Arial">SUPABASE_URL, SUPABASE_ANON_KEY, SUPABASE_SERVICE_ROLE_KEY,</text><text x="369" y="669.349" fill="#000" font-size="12" textLength="391.482" font-family="Arial">SUPABASE_JWT_SECRET, DEEPSEEK_API_KEY, OPENAI_API_KEY,</text><text x="369" y="683.147" fill="#000" font-size="12" textLength="318.105" font-family="Arial">ANTHROPIC_API_KEY, REDIS_URL, RESEND_API_KEY,</text><text x="369" y="696.946" fill="#000" font-size="12" textLength="508.799" font-family="Arial">LEMONSQUEEZY_API_KEY, _STORE_ID, _WEBHOOK_SECRET, _PREMIUM_VARIANT_ID</text><text x="369" y="710.745" fill="#000" font-size="12" textLength="310.447" font-family="Arial">Configuración: ENVIRONMENT=production (render.yaml),</text><text x="369" y="724.544" fill="#000" font-size="12" textLength="409.137" font-family="Arial">FRONTEND_URL y TASK_EXECUTION_MODE=local (cargada en el panel)</text></g><!--entity SUP--><g class="entity" data-qualified-name="SUP" id="ent0005" data-source-line="24"><rect x="6" y="789.099" width="268.754" height="88.994" fill="#E3F1EC" style="stroke:#4A5568;stroke-width:0.5;" rx="2.5" ry="2.5"/><text x="16" y="810.354" fill="#000" font-size="12" textLength="151.424" font-family="Arial">Supabase · región sa-east-1</text><text x="16" y="824.153" fill="#000" font-size="12" textLength="224.121" font-family="Arial">Postgres 17 con pgvector · Auth · Storage</text><text x="16" y="837.952" fill="#000" font-size="12" font-family="Arial"> </text><text x="16" y="851.751" fill="#000" font-size="12" textLength="224.115" font-family="Arial">Clave pública (anon) y URL: van a la web.</text><text x="16" y="865.55" fill="#000" font-size="12" textLength="248.754" font-family="Arial">Clave de servicio y secreto JWT: solo a la API.</text></g><!--entity RED--><g class="entity" data-qualified-name="RED" id="ent0006" data-source-line="26"><rect x="396" y="803.099" width="248.797" height="61.396" fill="#EDEFF2" style="stroke:#4A5568;stroke-width:0.5;" rx="2.5" ry="2.5"/><text x="406" y="824.354" fill="#000" font-size="12" textLength="157.4" font-family="Arial">Upstash · Redis administrado</text><text x="406" y="838.153" fill="#000" font-size="12" textLength="228.797" font-family="Arial">La contraseña viaja dentro de REDIS_URL</text><text x="406" y="851.952" fill="#000" font-size="12" textLength="120.709" font-family="Arial">(rediss://…:6379, TLS)</text></g><!--entity IA--><g class="entity" data-qualified-name="IA" id="ent0007" data-source-line="28"><rect x="663.5" y="803.099" width="194.1" height="61.396" fill="#FFE9AE" style="stroke:#4A5568;stroke-width:0.5;" rx="2.5" ry="2.5"/><text x="673.5" y="824.354" fill="#000" font-size="12" textLength="168.756" font-family="Arial">DeepSeek · OpenAI · Anthropic</text><text x="673.5" y="838.153" fill="#000" font-size="12" textLength="174.1" font-family="Arial">Una clave de API por proveedor,</text><text x="673.5" y="851.952" fill="#000" font-size="12" textLength="74.045" font-family="Arial">solo en la API</text></g><!--entity LS--><g class="entity" data-qualified-name="LS" id="ent0008" data-source-line="30"><rect x="525" y="418.599" width="196.754" height="61.396" fill="#FFE9AE" style="stroke:#4A5568;stroke-width:0.5;" rx="2.5" ry="2.5"/><text x="535" y="439.854" fill="#000" font-size="12" textLength="83.391" font-family="Arial">LemonSqueezy</text><text x="535" y="453.653" fill="#000" font-size="12" textLength="176.754" font-family="Arial">Firma el webhook con un secreto</text><text x="535" y="467.452" fill="#000" font-size="12" textLength="154.711" font-family="Arial">compartido (HMAC-SHA256)</text></g><!--entity GH--><g class="entity" data-qualified-name="GH" id="ent0009" data-source-line="32"><rect x="421.5" y="202.099" width="400.145" height="116.592" fill="#EDEFF2" style="stroke:#4A5568;stroke-width:0.5;" rx="2.5" ry="2.5"/><text x="431.5" y="223.354" fill="#000" font-size="12" textLength="175.412" font-family="Arial">GitHub · Buatishi/Jobby (público)</text><text x="431.5" y="237.153" fill="#000" font-size="12" textLength="193.418" font-family="Arial">Secretos de Actions (solo nombres):</text><text x="431.5" y="250.952" fill="#000" font-size="12" textLength="370.793" font-family="Arial">RENDER_DEPLOY_HOOK_URL y VERCEL_DEPLOY_HOOK_URL,</text><text x="431.5" y="264.751" fill="#000" font-size="12" textLength="203.479" font-family="Arial">que usa el despliegue después del CI;</text><text x="431.5" y="278.55" fill="#000" font-size="12" textLength="380.145" font-family="Arial">TEST_SUPABASE_URL y TEST_SUPABASE_SERVICE_ROLE_KEY,</text><text x="431.5" y="292.349" fill="#000" font-size="12" textLength="306.867" font-family="Arial">del proyecto de pruebas, para las pruebas de integración.</text><text x="431.5" y="306.147" fill="#000" font-size="12" textLength="178.113" font-family="Arial">Ningún secreto está en el código.</text></g><g class="link" data-entity-1="ent0001" data-entity-2="ent0003" id="lnk10" data-link-type="dependency"><polygon points="251.01,383.974,247.18,374.9,247.362,380.554,241.708,380.737,251.01,383.974" fill="#4A5568" style="stroke:#4A5568;stroke-width:1;stroke-linejoin:miter;stroke-miterlimit:10;"/><path d="M191.282,304.621 C202.433,324.463 217.11,347.649 233.5,366.099 C238.921,372.201 241.19,374.768 247.362,380.554" style="stroke:#4A5568;stroke-width:1;" fill="none"/><text x="235.5" y="355.917" fill="#000" font-size="11" textLength="57.465" font-family="Arial">HTTPS 443</text></g><g class="link" data-entity-1="ent0001" data-entity-2="ent0005" id="lnk11" data-link-type="dependency"><polygon points="141.782,788.959,146.058,780.087,141.936,783.961,138.062,779.839,141.782,788.959" fill="#4A5568" style="stroke:#4A5568;stroke-width:1;stroke-linejoin:miter;stroke-miterlimit:10;"/><path d="M165.571,304.655 C163.534,328.124 161.137,357.69 159.5,384.099 C150.305,532.474 144.418,703.745 141.936,783.961" style="stroke:#4A5568;stroke-width:1;" fill="none"/><text x="179.797" y="544.417" fill="#000" font-size="11" textLength="57.465" font-family="Arial">HTTPS 443</text><text x="153.5" y="557.065" fill="#000" font-size="11" textLength="110.059" font-family="Arial">login y subida del PDF</text></g><g class="link" data-entity-1="ent0003" data-entity-2="ent0004" id="lnk12" data-link-type="dependency"><polygon points="508.578,578.966,503.521,570.514,504.489,576.088,498.916,577.056,508.578,578.966" fill="#4A5568" style="stroke:#4A5568;stroke-width:1;stroke-linejoin:miter;stroke-miterlimit:10;"/><path d="M420.358,514.204 C440.85,529.75 462.851,546.183 483.5,561.099 C491.623,566.966 495.969,570.09 504.489,576.088" style="stroke:#4A5568;stroke-width:1;" fill="none"/><text x="522.797" y="544.417" fill="#000" font-size="11" textLength="57.465" font-family="Arial">HTTPS 443</text><text x="485.5" y="557.065" fill="#000" font-size="11" textLength="132.059" font-family="Arial">(reescritura /api/backend/*)</text></g><g class="link" data-entity-1="ent0004" data-entity-2="ent0005" id="lnk13" data-link-type="dependency"><polygon points="261.665,789.074,271.488,789.796,266.371,787.384,268.783,782.267,261.665,789.074" fill="#4A5568" style="stroke:#4A5568;stroke-width:1;stroke-linejoin:miter;stroke-miterlimit:10;"/><path d="M406.02,737.22 C356.443,755.029 310.207,771.638 266.371,787.384" style="stroke:#4A5568;stroke-width:1;" fill="none"/><text x="355.5" y="767.417" fill="#000" font-size="11" textLength="57.465" font-family="Arial">HTTPS 443</text></g><g class="link" data-entity-1="ent0004" data-entity-2="ent0006" id="lnk14" data-link-type="dependency"><polygon points="538.058,803.022,546.092,797.325,540.611,798.723,539.213,793.241,538.058,803.022" fill="#4A5568" style="stroke:#4A5568;stroke-width:1;stroke-linejoin:miter;stroke-miterlimit:10;"/><path d="M577.122,737.22 C563.239,760.606 551.407,780.536 540.611,798.723" style="stroke:#4A5568;stroke-width:1;" fill="none"/><text x="568.5" y="767.417" fill="#000" font-size="11" textLength="56.869" font-family="Arial">rediss 6379</text></g><g class="link" data-entity-1="ent0004" data-entity-2="ent0007" id="lnk15" data-link-type="dependency"><polygon points="737.146,803.022,734.708,793.48,734.047,799.098,728.429,798.438,737.146,803.022" fill="#4A5568" style="stroke:#4A5568;stroke-width:1;stroke-linejoin:miter;stroke-miterlimit:10;"/><path d="M685.187,737.22 C703.653,760.606 719.687,780.912 734.047,799.098" style="stroke:#4A5568;stroke-width:1;" fill="none"/><text x="710.5" y="767.417" fill="#000" font-size="11" textLength="57.465" font-family="Arial">HTTPS 443</text></g><g class="link" data-entity-1="ent0008" data-entity-2="ent0004" id="lnk16" data-link-type="dependency"><polygon points="623.5,578.815,627.5,569.815,623.5,573.815,619.5,569.815,623.5,578.815" fill="#4A5568" style="stroke:#4A5568;stroke-width:1;stroke-linejoin:miter;stroke-miterlimit:10;"/><path d="M623.5,479.757 C623.5,505.581 623.5,539.201 623.5,573.815" style="stroke:#4A5568;stroke-width:1;" fill="none"/><text x="638.651" y="544.417" fill="#000" font-size="11" textLength="57.465" font-family="Arial">HTTPS 443</text><text x="625.5" y="557.065" fill="#000" font-size="11" textLength="83.768" font-family="Arial">webhook firmado</text></g><g class="link" data-entity-1="ent0009" data-entity-2="ent0004" id="lnk17" data-link-type="dependency"><polygon points="702.503,578.817,711.092,573.998,705.494,574.811,704.681,569.213,702.503,578.817" fill="#4A5568" style="stroke:#4A5568;stroke-width:1;stroke-linejoin:miter;stroke-miterlimit:10;"/><path d="M688.064,319.117 C705.212,337.903 721.389,360.153 730.5,384.099 C758.589,457.923 755.34,493.489 714.5,561.099 C710.879,567.094 709.819,569.017 705.494,574.811" style="stroke:#4A5568;stroke-width:1;" fill="none"/><text x="752.429" y="446.917" fill="#000" font-size="11" textLength="57.465" font-family="Arial">HTTPS 443</text><text x="751.5" y="459.565" fill="#000" font-size="11" textLength="59.324" font-family="Arial">deploy hook</text></g><g class="link" data-entity-1="ent0009" data-entity-2="ent0003" id="lnk18" data-link-type="dependency"><polygon points="435.139,383.98,444.858,382.383,439.319,381.235,440.467,375.696,435.139,383.98" fill="#4A5568" style="stroke:#4A5568;stroke-width:1;stroke-linejoin:miter;stroke-miterlimit:10;"/><path d="M533.586,319.331 C502.389,339.818 471.277,360.248 439.319,381.235" style="stroke:#4A5568;stroke-width:1;" fill="none"/><text x="508.429" y="349.417" fill="#000" font-size="11" textLength="57.465" font-family="Arial">HTTPS 443</text><text x="507.5" y="362.065" fill="#000" font-size="11" textLength="59.324" font-family="Arial">deploy hook</text></g><g class="link" data-entity-1="ent0002" data-entity-2="ent0003" id="lnk19" data-link-type="dependency"><polygon points="319.035,383.876,320.955,374.216,317.934,378.999,313.151,375.978,319.035,383.876" fill="#4A5568" style="stroke:#4A5568;stroke-width:1;stroke-linejoin:miter;stroke-miterlimit:10;"/><path d="M354.446,137.16 C339.83,155.702 325.044,178.522 317.5,202.099 C298.434,261.683 306.519,328.439 317.934,378.999" style="stroke:#4A5568;stroke-width:1;stroke-dasharray:7,7;" fill="none"/><text x="319.5" y="258.417" fill="#000" font-size="11" textLength="91.711" font-family="Arial">carga las variables</text><text x="323.472" y="271.065" fill="#000" font-size="11" textLength="83.768" font-family="Arial">(panel de Vercel)</text></g><g class="link" data-entity-1="ent0002" data-entity-2="ent0004" id="lnk20" data-link-type="dependency"><polygon points="761.275,578.809,770.733,576.061,765.096,575.584,765.573,569.947,761.275,578.809" fill="#4A5568" style="stroke:#4A5568;stroke-width:1;stroke-linejoin:miter;stroke-miterlimit:10;"/><path d="M472.703,102.054 C585.957,115.373 786.888,146.365 830.5,202.099 C856.529,235.362 837.603,475.689 816.5,514.099 C802.945,538.769 786.942,557.147 765.096,575.584" style="stroke:#4A5568;stroke-width:1;stroke-dasharray:7,7;" fill="none"/><text x="843.5" y="349.417" fill="#000" font-size="11" textLength="89.262" font-family="Arial">carga los secretos</text><text x="843.798" y="362.065" fill="#000" font-size="11" textLength="88.666" font-family="Arial">(panel de Render)</text></g><g class="link" data-entity-1="ent0002" data-entity-2="ent0005" id="lnk21" data-link-type="dependency"><polygon points="80.555,788.783,76.458,779.827,76.808,785.473,71.162,785.822,80.555,788.783" fill="#4A5568" style="stroke:#4A5568;stroke-width:1;stroke-linejoin:miter;stroke-miterlimit:10;"/><path d="M316.449,94.16 C203.147,98.82 6.5,126.131 6.5,259.599 C6.5,259.599 6.5,259.599 6.5,659.099 C6.5,711.24 41.129,753.952 76.808,785.473" style="stroke:#4A5568;stroke-width:1;stroke-dasharray:7,7;" fill="none"/><text x="15.845" y="446.917" fill="#000" font-size="11" textLength="87.441" font-family="Arial">obtiene las claves</text><text x="8.5" y="459.565" fill="#000" font-size="11" textLength="102.131" font-family="Arial">(panel de Supabase)</text></g><g class="link" data-entity-1="ent0002" data-entity-2="ent0009" id="lnk22" data-link-type="dependency"><polygon points="542.233,201.807,537.318,193.273,538.193,198.862,532.605,199.737,542.233,201.807" fill="#4A5568" style="stroke:#4A5568;stroke-width:1;stroke-linejoin:miter;stroke-miterlimit:10;"/><path d="M453.549,137.15 C480.61,156.879 509.043,177.609 538.193,198.862" style="stroke:#4A5568;stroke-width:1;stroke-dasharray:7,7;" fill="none"/><text x="517.5" y="167.417" fill="#000" font-size="11" textLength="89.262" font-family="Arial">carga los secretos</text><text x="536.449" y="180.065" fill="#000" font-size="11" textLength="51.364" font-family="Arial">de Actions</text></g><g class="legend" data-source-line="49"><rect x="432.344" y="900.099" width="489.418" height="191.085" fill="none" style="stroke:#9AA5B1;stroke-width:1;" rx="7.5" ry="7.5"/><rect x="437.344" y="907.099" width="23.338" height="16.099" fill="#D6E2F3" style="stroke:none;"/><text x="437.344" y="920.23" fill="#000" font-size="14" textLength="23.338" font-family="Arial">      </text><text x="464.572" y="920.23" fill="#000" font-size="14" textLength="147.882" font-family="Arial">Código propio de Jobby</text><rect x="437.344" y="923.197" width="23.338" height="16.099" fill="#E3F1EC" style="stroke:none;"/><text x="437.344" y="936.329" fill="#000" font-size="14" textLength="23.338" font-family="Arial">      </text><text x="464.572" y="936.329" fill="#000" font-size="14" textLength="63.055" font-family="Arial">Supabase</text><rect x="437.344" y="939.296" width="23.338" height="16.099" fill="#FFE9AE" style="stroke:none;"/><text x="437.344" y="952.428" fill="#000" font-size="14" textLength="23.338" font-family="Arial">      </text><text x="464.572" y="952.428" fill="#000" font-size="14" textLength="130.717" font-family="Arial">Servicios de terceros</text><rect x="437.344" y="955.395" width="23.338" height="16.099" fill="#EDEFF2" style="stroke:none;"/><text x="437.344" y="968.526" fill="#000" font-size="14" textLength="23.338" font-family="Arial">      </text><text x="464.572" y="968.526" fill="#000" font-size="14" textLength="115.938" font-family="Arial">Redis y repositorio</text><line x1="437.344" y1="907.099" x2="616.343" y2="907.099" style="stroke:#000;stroke-width:1;"/><line x1="437.344" y1="923.197" x2="616.343" y2="923.197" style="stroke:#000;stroke-width:1;"/><line x1="437.344" y1="939.296" x2="616.343" y2="939.296" style="stroke:#000;stroke-width:1;"/><line x1="437.344" y1="955.395" x2="616.343" y2="955.395" style="stroke:#000;stroke-width:1;"/><line x1="437.344" y1="971.493" x2="616.343" y2="971.493" style="stroke:#000;stroke-width:1;"/><line x1="437.344" y1="907.099" x2="437.344" y2="971.493" style="stroke:#000;stroke-width:1;"/><line x1="460.682" y1="907.099" x2="460.682" y2="971.493" style="stroke:#000;stroke-width:1;"/><line x1="616.343" y1="907.099" x2="616.343" y2="971.493" style="stroke:#000;stroke-width:1;"/><text x="437.344" y="986.625" fill="#000" font-size="14" textLength="445.136" font-family="Arial">Línea continua: tráfico cifrado por Internet (todos los enlaces lo cruzan).</text><text x="437.344" y="1002.724" fill="#000" font-size="14" textLength="446.749" font-family="Arial">Línea punteada: carga manual de secretos en el panel de la plataforma.</text><text x="437.344" y="1018.822" fill="#000" font-size="14" textLength="445.942" font-family="Arial">Recorrido de un secreto: panel de la plataforma, variable de entorno del</text><text x="437.344" y="1034.921" fill="#000" font-size="14" textLength="442.832" font-family="Arial">contenedor o del build, lectura por la configuración de la app (Settings),</text><text x="437.344" y="1051.02" fill="#000" font-size="14" textLength="479.418" font-family="Arial">uso en el encabezado o la conexión. Nunca se escribe en logs ni respuestas.</text><text x="437.344" y="1067.118" fill="#000" font-size="14" textLength="463.825" font-family="Arial">Local: la web usa localhost:3000, la API localhost:8000 y Redis en Docker;</text><text x="437.344" y="1083.217" fill="#000" font-size="14" textLength="322.198" font-family="Arial">solo cambian las variables de entorno, no el código.</text></g><?plantuml-src TLVDSYAt6jtp5BepYvWKndzZ9sPkKjK6EIQ3WTiDdimjgYZHBOF6ZTIHrCmmDOlxAjdSgYooI6MHgYoltoHFaYDr0uslmuAVrYTzqldEEVhuWdIuoLB1vpad2IVVgzbiJRWacLP97iVYyJVP8B6I96KaducO-KSkD5M661vhRfLfaZkknJs64-MYhMP4SvbmtLopPTeWJIvNJVwHBREKDsfVa906dLlQN2RaW3v9LjdGcjmnBTWivSPbvD8gBLMzGLYMcQCFV7Oa-KVRHC9xCMzQWmafCzZ04YlEi5Kb_SoKd1wVNXmUNnwUdZIHFLAfmXfCynX7xGzkhq8QkGohJRhNH0evV_n3ub6gTBFsZqop-P9X_RNABJ5BRfbaDQioOXMPAMlLaYG2ArfahPa78R4-MnAp02OVi1YvPwdXbP64txCyjTU0gy-Md0J8dJu_7ebFd9oSLWO3hTM7DiwXoSjNmVdvnTTF1tVpJYf38JR8v3pbLqgZF7-tGihdADyLYn_cMkKoAUEk_Ul_uwfhNGR1-TL9hMQ5JNcrclkiQf44xy0yLbhZdINC5mubazQLlXnUYHKcLibMgx4OH20lXbmR9S5BaxkwJMISi_J7N73jECW_5dmoGfAxOVy50JF6v6Ndd5xHiwTBi6Gff33WRQ8qLZh8cEGbxVpMifHPTg_qajNzIg2lX-DLvw9MqnjGoGle80RV_lSxMLYRcTRHqNidAN2rkV93JN1t8j_o6Uaxxhutv633vlf4JcILyIdnso07sUCVinJgCYJ3hXDX-EElgW5kIeSg8cQvI9DwQoBxz8VHT3Y-wdNRqs3OdOx3NeFW3O36ALjnmgJoyetoZCsOuOs9pB1_0O2NN0B95A5CuhCvaH6mgwuOqVueV3VjHFq6YL0dlIPIeJ04S8gLmssryu6gxCxgJG_RMtg54bpGq-kpFTX2RnPFO5io6oyEMIOEBpy2E2LBIm5D9XA78zVCMFS933egVk2wuUeaoLmpcmiBXBASQ-Zpw-FZOmTkL5A875JSoPChuO17CszrPYtZLY5N1saq7WPNGKGBBBU_WlwWFtr3trKUHJIywxRfD1pqg1-gJFx-xGZZxP2EO76K3YDAt_WA-IK6GzeFkjlVE5v_T1CEXcKLVKn8Ezses0JiYlOxbV0UlHtqet-DAVttkzsCQJGQX7JQxU0haByP3Dvizp0TXlIsExwTtWLX5zaGDP5jxwIvPgL4QV-k6mxwjoZxDuLsdRljeLT7zcl4ZDo62gADWkZDbFv0s-DH5nZT3ZhqcrJ5ODP1pFJSoQbWhMTtgIUKyJbYR6ZggA7vt5y-XXroLFxmP2A7ojYvXbXEllAbo-OhxfMDy22t2_SPuJURSrV_jfV0HarG7iHGnuwnxvPNapDuuiIwYOLI3DSh0O4WhhGWWcAsYF6tY9k0pHVqHhN9ItfsVKBRUwSOPyOoutSJSiXtpszGFLPUcaxN39R7tZDanXFbDh0jFFIbtNIdZp__yz_MnTbNbmqowaK5XeX3zWwzlZxTozxXF8iuVt3f1ncNGTV38-r2gqp44pc60yQRuxfAE9T1lLUSmmvHO7zKBikp-cJTmFaVlGpeNguUNoeP_PXp_caDOWWOfgiq85qezU1hbCiDZd1iE3xJLi0k3cvkW_PXT1ESdbyKv-b5pwRuJjYRVEQES9KpAyn271LjoyOcLRsYT7SYprg8tXz3gkKCZ77A3i5P6auxTDWRl9jwUHGClgDXc_QU3W0870pNZJzIKcsSJ9O__bnOThlxUY97D8BSAyRXPB7tx1cly8QlrTensEqxqpa7z-5YpfbSPrC-SOC2j-Iy52hOsY_RbGr3kR6FFvKoYnz_IyHS5HJzxcR7aJ4vFFpMUtABt8n6muYyUdLMFdLKhZoTo5JDSHj00sW34-QFEknSrzni5-zeinSFgd8JQs5X9-G8Bdw4Zkm1nd7qPRtcef_9idtkgDmY1Tc9e_bs1BohJW17dis-8TozOs2YQZZsit49prAr9Yvs4_C4Z_sOchlucyrDbFSpNvfjwxXf7boHYcwWlfrKf2ydLLgQwfpYAjpDAI1ICokuv4L_wwIwDsVZahjPEClpYNPwgDMAxereCL_O6Y6V_rawyBV4lpwJTi4SnyfCgDqVXCz5TE5qs-YjLvV3XNPtmwMFUlfQXup6zyrIdfBRsC8brs10fWnkSetiBhBt-8laXLiAz2WjOlNZJ-WtyAz3t3ipzTRLXJQqv9OSM9KWXqE0ovJ5t7qdiSu_CLblxjRBSip0lRI1REaReCByIn-ft5Z-tq-r9NGheR568-kC3ACxYslzpPJ6bZ2LVpPEL5ZAdGwrXlKI_wZexXfejcCl9dV4r8DGkQpB3EWboK74BU2Pcte3g-L6bPldCcOp_icXfCe5YYQvIVevnbmZvoKxyyqw16_mDmWrWBjnTu5vnDn5tYglIU-5_cfVu29kdQ7DQfINHEMnwxvGowAcsrxjDHRpXXopvKmmkQ-Y2YeDrsDMRAm6pXRC_Gi0?></g></svg>