<svg xmlns="http://www.w3.org/2000/svg" xmlns:xlink="http://www.w3.org/1999/xlink" version="1.1" data-diagram-type="DESCRIPTION" style="width:1263px;height:803px;background:#FFFFFF;" width="1263px" height="803px" viewBox="0 0 1263 803" zoomAndPan="magnify" preserveAspectRatio="none" contentStyleType="text/css"><?plantuml 1.2026.8?><defs/><g font-family="sans-serif" lengthAdjust="spacing"><g class="title" data-source-line="17"><text x="441.652" y="23.132" fill="#000" font-size="14" textLength="372.695" font-weight="700" font-family="Arial">DFD nivel 1 — Vista 1C: procesos y almacenes de datos</text></g><!--entity P1--><g class="entity" data-qualified-name="P1" id="ent0001" data-source-line="19"><ellipse cx="68.086" cy="169.333" rx="52.086" ry="25.234" fill="#D6E2F3" style="stroke:#4A5568;stroke-width:0.5;"/><text x="64.749" y="157.712" fill="#000" font-size="12" font-family="Arial">1</text><text x="22.391" y="171.511" fill="#000" font-size="12" textLength="91.389" font-family="Arial">Gestionar cuenta</text><text x="44.408" y="185.31" fill="#000" font-size="12" textLength="47.355" font-family="Arial">y acceso</text></g><!--entity P2--><g class="entity" data-qualified-name="P2" id="ent0002" data-source-line="20"><ellipse cx="68.042" cy="78.337" rx="39.542" ry="25.239" fill="#D6E2F3" style="stroke:#4A5568;stroke-width:0.5;"/><text x="64.705" y="66.705" fill="#000" font-size="12" font-family="Arial">2</text><text x="34.031" y="80.504" fill="#000" font-size="12" textLength="68.021" font-family="Arial">Procesar CV</text><text x="50.37" y="94.302" fill="#000" font-size="12" textLength="35.344" font-family="Arial">y perfil</text></g><!--entity P3--><g class="entity" data-qualified-name="P3" id="ent0003" data-source-line="21"><ellipse cx="68.241" cy="569.987" rx="62.241" ry="28.888" fill="#D6E2F3" style="stroke:#4A5568;stroke-width:0.5;"/><text x="64.904" y="554.439" fill="#000" font-size="12" font-family="Arial">3</text><text x="41.897" y="568.237" fill="#000" font-size="12" textLength="52.688" font-family="Arial">Analizar y</text><text x="20.876" y="582.036" fill="#000" font-size="12" textLength="94.729" font-family="Arial">gestionar puestos</text></g><!--entity P4--><g class="entity" data-qualified-name="P4" id="ent0004" data-source-line="22"><ellipse cx="687.988" cy="347.995" rx="50.988" ry="28.896" fill="#D6E2F3" style="stroke:#4A5568;stroke-width:0.5;"/><text x="684.651" y="332.46" fill="#000" font-size="12" font-family="Arial">4</text><text x="667.644" y="346.259" fill="#000" font-size="12" textLength="40.688" font-family="Arial">Evaluar</text><text x="649.632" y="360.058" fill="#000" font-size="12" textLength="76.711" font-family="Arial">compatibilidad</text></g><!--entity P5--><g class="entity" data-qualified-name="P5" id="ent0005" data-source-line="23"><ellipse cx="687.991" cy="432.001" rx="45.991" ry="28.902" fill="#D6E2F3" style="stroke:#4A5568;stroke-width:0.5;"/><text x="684.654" y="416.476" fill="#000" font-size="12" font-family="Arial">5</text><text x="658.313" y="430.274" fill="#000" font-size="12" textLength="59.355" font-family="Arial">Generar kit</text><text x="653.637" y="444.073" fill="#000" font-size="12" textLength="68.707" font-family="Arial">de entrevista</text></g><!--entity P6--><g class="entity" data-qualified-name="P6" id="ent0006" data-source-line="24"><ellipse cx="68.07" cy="342.01" rx="40.57" ry="28.911" fill="#D6E2F3" style="stroke:#4A5568;stroke-width:0.5;"/><text x="64.733" y="326.5" fill="#000" font-size="12" font-family="Arial">6</text><text x="42.058" y="340.299" fill="#000" font-size="12" textLength="52.025" font-family="Arial">Gestionar</text><text x="38.059" y="354.098" fill="#000" font-size="12" textLength="60.023" font-family="Arial">suscripción</text></g><!--entity P7--><g class="entity" data-qualified-name="P7" id="ent0007" data-source-line="25"><ellipse cx="1212.912" cy="557.328" rx="33.912" ry="27.729" fill="#D6E2F3" style="stroke:#4A5568;stroke-width:0.5;"/><text x="1209.575" y="543.042" fill="#000" font-size="12" font-family="Arial">7</text><text x="1187.233" y="556.841" fill="#000" font-size="12" textLength="51.357" font-family="Arial">Consultar</text><text x="1190.242" y="570.64" fill="#000" font-size="12" textLength="45.34" font-family="Arial">métricas</text></g><!--entity D1--><g class="entity" data-qualified-name="D1" id="ent0008" data-source-line="27"><path d="M326.5,418.599 C326.5,408.599 384.189,408.599 384.189,408.599 C384.189,408.599 441.879,408.599 441.879,418.599 L441.879,455.196 C441.879,465.196 384.189,465.196 384.189,465.196 C384.189,465.196 326.5,465.196 326.5,455.196 L326.5,418.599" style="stroke:#4A5568;stroke-width:0.5;" fill="#E3F1EC"/><path d="M326.5,418.599 C326.5,428.599 384.189,428.599 384.189,428.599 C384.189,428.599 441.879,428.599 441.879,418.599" style="stroke:#4A5568;stroke-width:0.5;" fill="none"/><text x="336.5" y="443.854" fill="#000" font-size="12" textLength="15.34" font-family="Arial">D1</text><text x="336.5" y="457.653" fill="#000" font-size="12" textLength="95.379" font-family="Arial">Usuarios y planes</text></g><!--entity D2--><g class="entity" data-qualified-name="D2" id="ent0009" data-source-line="28"><path d="M337,343.599 C337,333.599 384.011,333.599 384.011,333.599 C384.011,333.599 431.021,333.599 431.021,343.599 L431.021,380.196 C431.021,390.196 384.011,390.196 384.011,390.196 C384.011,390.196 337,390.196 337,380.196 L337,343.599" style="stroke:#4A5568;stroke-width:0.5;" fill="#E3F1EC"/><path d="M337,343.599 C337,353.599 384.011,353.599 384.011,353.599 C384.011,353.599 431.021,353.599 431.021,343.599" style="stroke:#4A5568;stroke-width:0.5;" fill="none"/><text x="347" y="368.854" fill="#000" font-size="12" textLength="15.34" font-family="Arial">D2</text><text x="347" y="382.653" fill="#000" font-size="12" textLength="74.021" font-family="Arial">Perfil maestro</text></g><!--entity D3--><g class="entity" data-qualified-name="D3" id="ent0010" data-source-line="29"><path d="M322,74.599 C322,64.599 384.025,64.599 384.025,64.599 C384.025,64.599 446.051,64.599 446.051,74.599 L446.051,111.196 C446.051,121.196 384.025,121.196 384.025,121.196 C384.025,121.196 322,121.196 322,111.196 L322,74.599" style="stroke:#4A5568;stroke-width:0.5;" fill="#E3F1EC"/><path d="M322,74.599 C322,84.599 384.025,84.599 384.025,84.599 C384.025,84.599 446.051,84.599 446.051,74.599" style="stroke:#4A5568;stroke-width:0.5;" fill="none"/><text x="332" y="99.854" fill="#000" font-size="12" textLength="15.34" font-family="Arial">D3</text><text x="332" y="113.653" fill="#000" font-size="12" textLength="104.051" font-family="Arial">Documentos de CV</text></g><!--entity D4--><g class="entity" data-qualified-name="D4" id="ent0011" data-source-line="30"><path d="M352.5,527.599 C352.5,517.599 384.18,517.599 384.18,517.599 C384.18,517.599 415.859,517.599 415.859,527.599 L415.859,564.196 C415.859,574.196 384.18,574.196 384.18,574.196 C384.18,574.196 352.5,574.196 352.5,564.196 L352.5,527.599" style="stroke:#4A5568;stroke-width:0.5;" fill="#E3F1EC"/><path d="M352.5,527.599 C352.5,537.599 384.18,537.599 384.18,537.599 C384.18,537.599 415.859,537.599 415.859,527.599" style="stroke:#4A5568;stroke-width:0.5;" fill="none"/><text x="362.5" y="552.854" fill="#000" font-size="12" textLength="15.34" font-family="Arial">D4</text><text x="362.5" y="566.653" fill="#000" font-size="12" textLength="43.359" font-family="Arial">Puestos</text></g><!--entity D5--><g class="entity" data-qualified-name="D5" id="ent0012" data-source-line="31"><path d="M934.5,532.099 C934.5,522.099 982.858,522.099 982.858,522.099 C982.858,522.099 1031.217,522.099 1031.217,532.099 L1031.217,582.495 C1031.217,592.495 982.858,592.495 982.858,592.495 C982.858,592.495 934.5,592.495 934.5,582.495 L934.5,532.099" style="stroke:#4A5568;stroke-width:0.5;" fill="#E3F1EC"/><path d="M934.5,532.099 C934.5,542.099 982.858,542.099 982.858,542.099 C982.858,542.099 1031.217,542.099 1031.217,532.099" style="stroke:#4A5568;stroke-width:0.5;" fill="none"/><text x="944.5" y="557.354" fill="#000" font-size="12" textLength="15.34" font-family="Arial">D5</text><text x="944.5" y="571.153" fill="#000" font-size="12" textLength="76.717" font-family="Arial">Resultados de</text><text x="944.5" y="584.952" fill="#000" font-size="12" textLength="76.711" font-family="Arial">compatibilidad</text></g><!--entity D6--><g class="entity" data-qualified-name="D6" id="ent0013" data-source-line="32"><path d="M927,620.599 C927,610.599 983.022,610.599 983.022,610.599 C983.022,610.599 1039.045,610.599 1039.045,620.599 L1039.045,657.196 C1039.045,667.196 983.022,667.196 983.022,667.196 C983.022,667.196 927,667.196 927,657.196 L927,620.599" style="stroke:#4A5568;stroke-width:0.5;" fill="#E3F1EC"/><path d="M927,620.599 C927,630.599 983.022,630.599 983.022,630.599 C983.022,630.599 1039.045,630.599 1039.045,620.599" style="stroke:#4A5568;stroke-width:0.5;" fill="none"/><text x="937" y="645.854" fill="#000" font-size="12" textLength="15.34" font-family="Arial">D6</text><text x="937" y="659.653" fill="#000" font-size="12" textLength="92.045" font-family="Arial">Kits de entrevista</text></g><!--entity D7--><g class="entity" data-qualified-name="D7" id="ent0014" data-source-line="33"><path d="M923,338.599 C923,328.599 983.036,328.599 983.036,328.599 C983.036,328.599 1043.072,328.599 1043.072,338.599 L1043.072,375.196 C1043.072,385.196 983.036,385.196 983.036,385.196 C983.036,385.196 923,385.196 923,375.196 L923,338.599" style="stroke:#4A5568;stroke-width:0.5;" fill="#E3F1EC"/><path d="M923,338.599 C923,348.599 983.036,348.599 983.036,348.599 C983.036,348.599 1043.072,348.599 1043.072,338.599" style="stroke:#4A5568;stroke-width:0.5;" fill="none"/><text x="933" y="363.854" fill="#000" font-size="12" textLength="15.34" font-family="Arial">D7</text><text x="933" y="377.653" fill="#000" font-size="12" textLength="100.072" font-family="Arial">Caché de LinkedIn</text></g><!--entity D8--><g class="entity" data-qualified-name="D8" id="ent0015" data-source-line="34"><path d="M927.5,192.099 C927.5,182.099 982.863,182.099 982.863,182.099 C982.863,182.099 1038.227,182.099 1038.227,192.099 L1038.227,242.495 C1038.227,252.495 982.863,252.495 982.863,252.495 C982.863,252.495 927.5,252.495 927.5,242.495 L927.5,192.099" style="stroke:#4A5568;stroke-width:0.5;" fill="#EDEFF2"/><path d="M927.5,192.099 C927.5,202.099 982.863,202.099 982.863,202.099 C982.863,202.099 1038.227,202.099 1038.227,192.099" style="stroke:#4A5568;stroke-width:0.5;" fill="none"/><text x="937.5" y="217.354" fill="#000" font-size="12" textLength="15.34" font-family="Arial">D8</text><text x="937.5" y="231.153" fill="#000" font-size="12" textLength="90.727" font-family="Arial">Estado de tareas</text><text x="937.5" y="244.952" fill="#000" font-size="12" textLength="44.004" font-family="Arial">y límites</text></g><g class="link" data-entity-1="ent0001" data-entity-2="ent0008" id="lnk16" data-link-type="dependency"><polygon points="330.591,408.561,326.361,399.667,326.795,405.307,321.155,405.741,330.591,408.561" fill="#4A5568" style="stroke:#4A5568;stroke-width:1;stroke-linejoin:miter;stroke-miterlimit:10;"/><path d="M80.189,194.182 C100.482,239.447 141.84,330.546 148,335.099 C204.359,376.755 248.47,315.344 304,358.099 C320.092,370.488 308.682,384.767 322,400.099 C324.599,403.091 323.706,402.659 326.795,405.307" style="stroke:#4A5568;stroke-width:1;" fill="none"/><text x="170" y="331.417" fill="#2D3748" font-size="11" textLength="112.519" font-family="Arial">Datos de cuenta y plan</text></g><g class="link" data-entity-1="ent0001" data-entity-2="ent0010" id="lnk17" data-link-type="dependency"><polygon points="321.769,105.562,312.159,103.408,316.867,106.544,313.731,111.252,321.769,105.562" fill="#4A5568" style="stroke:#4A5568;stroke-width:1;stroke-linejoin:miter;stroke-miterlimit:10;"/><path d="M120.413,148.111 C129.513,144.818 138.967,141.661 148,139.099 C215.923,119.827 234.733,122.773 304,109.099 C309.766,107.96 310.864,107.748 316.867,106.544" style="stroke:#4A5568;stroke-width:1;" fill="none"/><text x="153" y="105.417" fill="#2D3748" font-size="11" textLength="146.142" font-family="Arial">Orden de borrado de archivos</text></g><g class="link" data-entity-1="ent0001" data-entity-2="ent0014" id="lnk18" data-link-type="dependency"><polygon points="959.14,328.335,956.164,318.947,955.824,324.594,950.177,324.253,959.14,328.335" fill="#4A5568" style="stroke:#4A5568;stroke-width:1;stroke-linejoin:miter;stroke-miterlimit:10;"/><path d="M120.147,169.977 C217.747,172.301 437.049,180.639 619,210.099 C748.392,231.048 790.567,218.175 905,282.099 C925.853,293.748 941.787,308.756 955.824,324.594" style="stroke:#4A5568;stroke-width:1;" fill="none"/><text x="474.5" y="186.417" fill="#2D3748" font-size="11" textLength="134.535" font-family="Arial">Orden de borrado de caché</text></g><g class="link" data-entity-1="ent0001" data-entity-2="ent0015" id="lnk19" data-link-type="dependency"><polygon points="927.284,190.847,920.209,183.995,922.589,189.127,917.457,191.507,927.284,190.847" fill="#4A5568" style="stroke:#4A5568;stroke-width:1;stroke-linejoin:miter;stroke-miterlimit:10;"/><path d="M120.297,162.791 C252.457,148.083 614.575,117.579 905,184.099 C912.372,185.787 915.231,186.431 922.589,189.127" style="stroke:#4A5568;stroke-width:1;" fill="none"/><text x="479.5" y="138.417" fill="#2D3748" font-size="11" textLength="124.121" font-family="Arial">Orden de invalidar claves</text></g><g class="link" data-entity-1="ent0002" data-entity-2="ent0010" id="lnk20" data-link-type="dependency"><polygon points="321.771,90.174,312.972,85.749,316.776,89.935,312.59,93.74,321.771,90.174" fill="#4A5568" style="stroke:#4A5568;stroke-width:1;stroke-linejoin:miter;stroke-miterlimit:10;"/><path d="M107.503,79.938 C160.971,82.492 253.285,86.902 316.776,89.935" style="stroke:#4A5568;stroke-width:1;" fill="none"/><text x="151" y="79.417" fill="#2D3748" font-size="11" textLength="150.417" font-family="Arial">CV y estado de procesamiento</text></g><g class="link" data-entity-1="ent0002" data-entity-2="ent0009" id="lnk21" data-link-type="dependency"><polygon points="344.979,333.422,340.304,324.753,341.023,330.364,335.412,331.083,344.979,333.422" fill="#4A5568" style="stroke:#4A5568;stroke-width:1;stroke-linejoin:miter;stroke-miterlimit:10;"/><path d="M97.945,103.218 C108.436,112.812 120.126,124.096 130,135.099 C138.905,145.022 138.903,149.351 148,159.099 C211.638,227.285 292.629,292.961 341.023,330.364" style="stroke:#4A5568;stroke-width:1;" fill="none"/><text x="181.5" y="155.417" fill="#2D3748" font-size="11" textLength="89.262" font-family="Arial">Perfil estructurado</text></g><g class="link" data-entity-1="ent0003" data-entity-2="ent0011" id="lnk22" data-link-type="dependency"><polygon points="352.447,545.241,343.525,541.069,347.448,545.145,343.372,549.068,352.447,545.241" fill="#4A5568" style="stroke:#4A5568;stroke-width:1;stroke-linejoin:miter;stroke-miterlimit:10;"/><path d="M130.056,555.811 C136.094,554.744 142.151,553.809 148,553.099 C220.934,544.24 302.486,544.282 347.448,545.145" style="stroke:#4A5568;stroke-width:1;" fill="none"/><text x="150" y="515.417" fill="#2D3748" font-size="11" textLength="152.249" font-family="Arial">Puesto estructurado con vector</text><text x="157.64" y="528.065" fill="#2D3748" font-size="11" textLength="136.968" font-family="Arial">Datos corregidos del puesto</text><text x="188.207" y="540.714" fill="#2D3748" font-size="11" textLength="75.834" font-family="Arial">Baja del puesto</text></g><g class="link" data-entity-1="ent0003" data-entity-2="ent0011" id="lnk23" data-link-type="dependency"><polygon points="130.312,576.771,138.969,581.469,135.297,577.166,139.6,573.494,130.312,576.771" fill="#4A5568" style="stroke:#4A5568;stroke-width:1;stroke-linejoin:miter;stroke-miterlimit:10;"/><path d="M135.297,577.166 C182.981,580.941 245.637,582.797 304,573.099 C320.443,570.366 338.055,564.64 352.467,559.162" style="stroke:#4A5568;stroke-width:1;" fill="none"/><text x="179" y="569.417" fill="#2D3748" font-size="11" textLength="94.789" font-family="Arial">Puestos guardados</text></g><g class="link" data-entity-1="ent0003" data-entity-2="ent0012" id="lnk24" data-link-type="dependency"><polygon points="130.158,580.782,138.498,586.022,135.108,581.493,139.636,578.103,130.158,580.782" fill="#4A5568" style="stroke:#4A5568;stroke-width:1;stroke-linejoin:miter;stroke-miterlimit:10;"/><path d="M135.108,581.493 C141.125,582.358 142.199,582.439 148,583.099 C356.182,606.756 409.894,616.295 619,603.099 C732.642,595.927 865.11,576.246 934.325,565.089" style="stroke:#4A5568;stroke-width:1;" fill="none"/><text x="466" y="599.417" fill="#2D3748" font-size="11" textLength="151.051" font-family="Arial">Resultados que usan el puesto</text></g><g class="link" data-entity-1="ent0003" data-entity-2="ent0013" id="lnk25" data-link-type="dependency"><polygon points="130.43,598.822,137.612,605.561,135.151,600.467,140.245,598.006,130.43,598.822" fill="#4A5568" style="stroke:#4A5568;stroke-width:1;stroke-linejoin:miter;stroke-miterlimit:10;"/><path d="M135.151,600.467 C141.006,602.507 142.2,602.672 148,604.099 C434.028,674.431 791.586,655.146 926.795,644.212" style="stroke:#4A5568;stroke-width:1;" fill="none"/><text x="484.5" y="645.417" fill="#2D3748" font-size="11" textLength="114.356" font-family="Arial">Kits que usan el puesto</text></g><g class="link" data-entity-1="ent0008" data-entity-2="ent0004" id="lnk26" data-link-type="dependency"><polygon points="652.527,377.232,643.29,380.649,648.946,380.722,648.873,386.378,652.527,377.232" fill="#4A5568" style="stroke:#4A5568;stroke-width:1;stroke-linejoin:miter;stroke-miterlimit:10;"/><path d="M441.553,440.245 C501.157,442.513 590.311,442.609 619,425.099 C632.599,416.799 627.025,406.521 637,394.099 C641.653,388.304 643.462,386.066 648.946,380.722" style="stroke:#4A5568;stroke-width:1;" fill="none"/><text x="496" y="421.417" fill="#2D3748" font-size="11" textLength="91.733" font-family="Arial">Plan de la persona</text></g><g class="link" data-entity-1="ent0009" data-entity-2="ent0004" id="lnk27" data-link-type="dependency"><polygon points="636.781,350.427,627.606,346.848,631.787,350.658,627.976,354.839,636.781,350.427" fill="#4A5568" style="stroke:#4A5568;stroke-width:1;stroke-linejoin:miter;stroke-miterlimit:10;"/><path d="M431.196,359.957 C486.714,357.383 574.536,353.312 631.787,350.658" style="stroke:#4A5568;stroke-width:1;" fill="none"/><text x="495.5" y="347.417" fill="#2D3748" font-size="11" textLength="92.329" font-family="Arial">Perfil y habilidades</text></g><g class="link" data-entity-1="ent0011" data-entity-2="ent0004" id="lnk28" data-link-type="dependency"><polygon points="649.51,377.359,640.444,381.205,646.097,381.013,646.29,386.666,649.51,377.359" fill="#4A5568" style="stroke:#4A5568;stroke-width:1;stroke-linejoin:miter;stroke-miterlimit:10;"/><path d="M415.935,542.561 C472.942,535.4 591.29,517.34 619,488.099 C648.259,457.223 616.304,431.261 637,394.099 C640.329,388.122 641.302,386.146 646.097,381.013" style="stroke:#4A5568;stroke-width:1;" fill="none"/><text x="492.5" y="484.417" fill="#2D3748" font-size="11" textLength="98.447" font-family="Arial">Puesto estructurado</text></g><g class="link" data-entity-1="ent0010" data-entity-2="ent0004" id="lnk29" data-link-type="dependency"><polygon points="674.881,318.832,674.559,308.989,672.702,314.332,667.358,312.475,674.881,318.832" fill="#4A5568" style="stroke:#4A5568;stroke-width:1;stroke-linejoin:miter;stroke-miterlimit:10;"/><path d="M393.701,121.644 C404.754,152.708 426.982,201.256 464,226.099 C521.828,264.907 559.925,212.216 619,249.099 C645.177,265.442 661.635,291.477 672.702,314.332" style="stroke:#4A5568;stroke-width:1;" fill="none"/><text x="488" y="222.417" fill="#2D3748" font-size="11" textLength="107.604" font-family="Arial">Texto del CV principal</text></g><g class="link" data-entity-1="ent0004" data-entity-2="ent0012" id="lnk30" data-link-type="dependency"><polygon points="739.035,370.249,746.116,377.095,743.732,371.965,748.861,369.581,739.035,370.249" fill="#4A5568" style="stroke:#4A5568;stroke-width:1;stroke-linejoin:miter;stroke-miterlimit:10;"/><polygon points="974.915,522.061,976.568,512.352,973.68,517.216,968.816,514.328,974.915,522.061" fill="#4A5568" style="stroke:#4A5568;stroke-width:1;stroke-linejoin:miter;stroke-miterlimit:10;"/><path d="M743.732,371.965 C749.715,374.151 751.098,374.45 757,376.099 C821.113,394.007 851.438,359.572 905,399.099 C945.267,428.814 964.307,480.455 973.68,517.216" style="stroke:#4A5568;stroke-width:1;" fill="none"/><text x="759.5" y="372.417" fill="#2D3748" font-size="11" textLength="143.698" font-family="Arial">Resultados de compatibilidad</text></g><g class="link" data-entity-1="ent0008" data-entity-2="ent0005" id="lnk31" data-link-type="dependency"><polygon points="641.67,453.591,631.846,452.898,636.969,455.295,634.572,460.419,641.67,453.591" fill="#4A5568" style="stroke:#4A5568;stroke-width:1;stroke-linejoin:miter;stroke-miterlimit:10;"/><path d="M441.537,455.639 C449.021,457.478 456.646,459.05 464,460.099 C532.199,469.824 551.421,473.468 619,460.099 C626.515,458.612 629.542,457.988 636.969,455.295" style="stroke:#4A5568;stroke-width:1;" fill="none"/><text x="496" y="456.417" fill="#2D3748" font-size="11" textLength="91.733" font-family="Arial">Plan de la persona</text></g><g class="link" data-entity-1="ent0009" data-entity-2="ent0005" id="lnk32" data-link-type="dependency"><polygon points="641.722,412.632,634.683,405.743,637.036,410.888,631.892,413.241,641.722,412.632" fill="#4A5568" style="stroke:#4A5568;stroke-width:1;stroke-linejoin:miter;stroke-miterlimit:10;"/><path d="M431.327,371.702 C442.045,373.862 453.411,376.104 464,378.099 C532.718,391.04 551.705,386.096 619,405.099 C626.457,407.204 629.535,408.095 637.036,410.888" style="stroke:#4A5568;stroke-width:1;" fill="none"/><text x="495.5" y="374.417" fill="#2D3748" font-size="11" textLength="92.329" font-family="Arial">Perfil y habilidades</text></g><g class="link" data-entity-1="ent0011" data-entity-2="ent0005" id="lnk33" data-link-type="dependency"><polygon points="681.102,461.382,674.99,469.105,679.859,466.225,682.739,471.093,681.102,461.382" fill="#4A5568" style="stroke:#4A5568;stroke-width:1;stroke-linejoin:miter;stroke-miterlimit:10;"/><path d="M415.691,558.899 C463.095,576.486 555.298,601.805 619,563.099 C655.243,541.077 671.802,497.621 679.859,466.225" style="stroke:#4A5568;stroke-width:1;" fill="none"/><text x="492.5" y="559.417" fill="#2D3748" font-size="11" textLength="98.447" font-family="Arial">Puesto estructurado</text></g><g class="link" data-entity-1="ent0005" data-entity-2="ent0013" id="lnk34" data-link-type="dependency"><polygon points="930.638,610.529,927.162,601.314,927.125,606.971,921.469,606.934,930.638,610.529" fill="#4A5568" style="stroke:#4A5568;stroke-width:1;stroke-linejoin:miter;stroke-miterlimit:10;"/><path d="M734.346,449.499 C741.839,451.969 749.582,454.282 757,456.099 C789.265,463.999 881.474,453.647 905,477.099 C944.441,516.413 892.884,554.256 923,601.099 C925.174,604.481 924.256,604.064 927.125,606.971" style="stroke:#4A5568;stroke-width:1;" fill="none"/><text x="792" y="452.417" fill="#2D3748" font-size="11" textLength="78.875" font-family="Arial">Kit de entrevista</text></g><g class="link" data-entity-1="ent0005" data-entity-2="ent0014" id="lnk35" data-link-type="dependency"><polygon points="734.02,435.732,742.834,440.127,739.015,435.953,743.188,432.134,734.02,435.732" fill="#4A5568" style="stroke:#4A5568;stroke-width:1;stroke-linejoin:miter;stroke-miterlimit:10;"/><polygon points="952.232,385.813,942.756,388.498,948.389,389.012,947.875,394.646,952.232,385.813" fill="#4A5568" style="stroke:#4A5568;stroke-width:1;stroke-linejoin:miter;stroke-miterlimit:10;"/><path d="M739.015,435.953 C783.847,437.941 848.892,436.35 905,415.099 C922.216,408.578 935.012,400.152 948.389,389.012" style="stroke:#4A5568;stroke-width:1;" fill="none"/><text x="759" y="411.417" fill="#2D3748" font-size="11" textLength="144.316" font-family="Arial">Perfiles de LinkedIn en caché</text></g><g class="link" data-entity-1="ent0006" data-entity-2="ent0008" id="lnk36" data-link-type="dependency"><polygon points="108.832,359.344,115.65,366.452,113.46,361.236,118.676,359.046,108.832,359.344" fill="#4A5568" style="stroke:#4A5568;stroke-width:1;stroke-linejoin:miter;stroke-miterlimit:10;"/><polygon points="326.394,423.996,318.585,417.993,321.534,422.821,316.706,425.769,326.394,423.996" fill="#4A5568" style="stroke:#4A5568;stroke-width:1;stroke-linejoin:miter;stroke-miterlimit:10;"/><path d="M113.46,361.236 C125.887,366.314 135.092,369.772 148,374.099 C208.075,394.233 273.57,411.227 321.534,422.821" style="stroke:#4A5568;stroke-width:1;" fill="none"/><text x="181.5" y="370.417" fill="#2D3748" font-size="11" textLength="89.268" font-family="Arial">Suscripción y plan</text></g><g class="link" data-entity-1="ent0002" data-entity-2="ent0015" id="lnk37" data-link-type="dependency"><polygon points="107.808,69.596,117.407,71.798,112.715,68.638,115.874,63.946,107.808,69.596" fill="#4A5568" style="stroke:#4A5568;stroke-width:1;stroke-linejoin:miter;stroke-miterlimit:10;"/><polygon points="943.868,182.019,939.282,173.304,939.943,178.922,934.325,179.583,943.868,182.019" fill="#4A5568" style="stroke:#4A5568;stroke-width:1;stroke-linejoin:miter;stroke-miterlimit:10;"/><path d="M112.715,68.638 C125.46,66.15 134.828,64.644 148,63.099 C224.888,54.078 244.605,56.877 322,55.099 C584.978,49.056 667.042,44.984 905,157.099 C918.645,163.527 928.184,169.64 939.943,178.922" style="stroke:#4A5568;stroke-width:1;" fill="none"/><text x="497" y="49.417" fill="#2D3748" font-size="11" textLength="89.284" font-family="Arial">Estado de la tarea</text></g><g class="link" data-entity-1="ent0003" data-entity-2="ent0015" id="lnk38" data-link-type="dependency"><polygon points="72.652,540.914,78.057,532.681,73.462,535.98,70.163,531.385,72.652,540.914" fill="#4A5568" style="stroke:#4A5568;stroke-width:1;stroke-linejoin:miter;stroke-miterlimit:10;"/><polygon points="927.272,221.904,917.905,218.861,922.299,222.424,918.736,226.817,927.272,221.904" fill="#4A5568" style="stroke:#4A5568;stroke-width:1;stroke-linejoin:miter;stroke-miterlimit:10;"/><path d="M73.462,535.98 C80.332,494.133 98.447,422.708 148,383.099 C203.023,339.116 246.021,395.104 304,355.099 C316.798,346.268 308.789,333.299 322,325.099 C378.259,290.179 554.342,315.375 619,301.099 C682.85,287 693.642,266.264 757,250.099 C814.191,235.507 876.345,227.223 922.299,222.424" style="stroke:#4A5568;stroke-width:1;" fill="none"/><text x="497" y="297.417" fill="#2D3748" font-size="11" textLength="89.284" font-family="Arial">Estado de la tarea</text></g><g class="link" data-entity-1="ent0004" data-entity-2="ent0015" id="lnk39" data-link-type="dependency"><polygon points="739.084,328.067,748.923,328.499,743.738,326.239,745.998,321.053,739.084,328.067" fill="#4A5568" style="stroke:#4A5568;stroke-width:1;stroke-linejoin:miter;stroke-miterlimit:10;"/><polygon points="929.836,252.352,920.062,253.563,925.551,254.929,924.185,260.419,929.836,252.352" fill="#4A5568" style="stroke:#4A5568;stroke-width:1;stroke-linejoin:miter;stroke-miterlimit:10;"/><path d="M743.738,326.239 C749.767,323.87 751.19,323.331 757,321.099 C822.503,295.927 842.161,297.331 905,266.099 C913.23,262.008 917.398,259.833 925.551,254.929" style="stroke:#4A5568;stroke-width:1;" fill="none"/><text x="786.5" y="262.417" fill="#2D3748" font-size="11" textLength="89.284" font-family="Arial">Estado de la tarea</text></g><g class="link" data-entity-1="ent0005" data-entity-2="ent0015" id="lnk40" data-link-type="dependency"><polygon points="722.823,402.894,732.09,399.558,726.434,399.436,726.556,393.78,722.823,402.894" fill="#4A5568" style="stroke:#4A5568;stroke-width:1;stroke-linejoin:miter;stroke-miterlimit:10;"/><polygon points="962.154,252.411,954.216,258.241,959.673,256.753,961.162,262.21,962.154,252.411" fill="#4A5568" style="stroke:#4A5568;stroke-width:1;stroke-linejoin:miter;stroke-miterlimit:10;"/><path d="M726.434,399.436 C732.051,394.056 734.043,391.792 739,386.099 C748.228,375.498 744.992,367.402 757,360.099 C813.66,325.635 849.217,376.963 905,341.099 C913.659,335.531 939.87,291.41 959.673,256.753" style="stroke:#4A5568;stroke-width:1;" fill="none"/><text x="786.5" y="337.417" fill="#2D3748" font-size="11" textLength="89.284" font-family="Arial">Estado de la tarea</text></g><g class="link" data-entity-1="ent0006" data-entity-2="ent0015" id="lnk41" data-link-type="dependency"><polygon points="96.958,312.878,106.326,309.837,100.677,309.536,100.979,303.887,96.958,312.878" fill="#4A5568" style="stroke:#4A5568;stroke-width:1;stroke-linejoin:miter;stroke-miterlimit:10;"/><polygon points="927.244,210.681,918.704,205.776,922.271,210.166,917.88,213.733,927.244,210.681" fill="#4A5568" style="stroke:#4A5568;stroke-width:1;stroke-linejoin:miter;stroke-miterlimit:10;"/><path d="M100.677,309.536 C114.677,296.955 128.963,286.927 148,280.099 C197.274,262.425 576.22,299.267 619,269.099 C637.28,256.208 618.663,234.909 637,222.099 C682.362,190.41 836.96,201.341 922.271,210.166" style="stroke:#4A5568;stroke-width:1;" fill="none"/><text x="484.5" y="265.417" fill="#2D3748" font-size="11" textLength="114.345" font-family="Arial">Eventos ya procesados</text></g><g class="link" data-entity-1="ent0008" data-entity-2="ent0007" id="lnk42" data-link-type="dependency"><polygon points="1178.82,543.133,1171.792,536.233,1174.137,541.381,1168.989,543.726,1178.82,543.133" fill="#4A5568" style="stroke:#4A5568;stroke-width:1;stroke-linejoin:miter;stroke-miterlimit:10;"/><path d="M441.587,464.828 C448.996,467.665 456.589,470.198 464,472.099 C713.888,536.194 787.142,480.099 1043,513.099 C1096.079,519.945 1109.674,521.939 1161,537.099 C1166.838,538.823 1168.261,539.183 1174.137,541.381" style="stroke:#4A5568;stroke-width:1;" fill="none"/><text x="783" y="497.417" fill="#2D3748" font-size="11" textLength="96.014" font-family="Arial">Conteos agregados</text></g><g class="link" data-entity-1="ent0010" data-entity-2="ent0007" id="lnk43" data-link-type="dependency"><polygon points="1209,529.374,1211.802,519.932,1208.353,524.416,1203.869,520.967,1209,529.374" fill="#4A5568" style="stroke:#4A5568;stroke-width:1;stroke-linejoin:miter;stroke-miterlimit:10;"/><path d="M446.167,82.139 C571.662,63.246 861.666,38.483 1043,173.099 C1163.623,262.644 1198.933,452.197 1208.353,524.416" style="stroke:#4A5568;stroke-width:1;" fill="none"/><text x="783" y="70.417" fill="#2D3748" font-size="11" textLength="96.014" font-family="Arial">Conteos agregados</text></g><g class="link" data-entity-1="ent0011" data-entity-2="ent0007" id="lnk44" data-link-type="dependency"><polygon points="1191.25,584.744,1182.412,589.092,1188.046,588.583,1188.555,594.217,1191.25,584.744" fill="#4A5568" style="stroke:#4A5568;stroke-width:1;stroke-linejoin:miter;stroke-miterlimit:10;"/><path d="M406.671,574.744 C421.005,591.468 441.3,611.338 464,622.099 C510.414,644.1 871.726,674.038 923,677.099 C976.239,680.277 991.219,689.874 1043,677.099 C1100.518,662.908 1114.441,651.732 1161,615.099 C1172.065,606.393 1179.429,598.91 1188.046,588.583" style="stroke:#4A5568;stroke-width:1;" fill="none"/><text x="783" y="659.417" fill="#2D3748" font-size="11" textLength="96.014" font-family="Arial">Conteos agregados</text></g><g class="link" data-entity-1="ent0012" data-entity-2="ent0007" id="lnk45" data-link-type="dependency"><polygon points="1178.918,557.099,1169.918,553.099,1173.918,557.099,1169.918,561.099,1178.918,557.099" fill="#4A5568" style="stroke:#4A5568;stroke-width:1;stroke-linejoin:miter;stroke-miterlimit:10;"/><path d="M1031.519,557.099 C1075.631,557.099 1135.156,557.099 1173.918,557.099" style="stroke:#4A5568;stroke-width:1;" fill="none"/><text x="1063" y="553.417" fill="#2D3748" font-size="11" textLength="96.014" font-family="Arial">Conteos agregados</text></g><g class="link" data-entity-1="ent0013" data-entity-2="ent0007" id="lnk46" data-link-type="dependency"><polygon points="1178.873,570.294,1169.035,569.824,1174.212,572.104,1171.932,577.281,1178.873,570.294" fill="#4A5568" style="stroke:#4A5568;stroke-width:1;stroke-linejoin:miter;stroke-miterlimit:10;"/><path d="M1039.2,620.348 C1074.212,608.31 1120.401,592.164 1161,577.099 C1166.796,574.948 1168.276,574.411 1174.212,572.104" style="stroke:#4A5568;stroke-width:1;" fill="none"/><text x="1063" y="573.417" fill="#2D3748" font-size="11" textLength="96.014" font-family="Arial">Conteos agregados</text></g><g class="legend" data-source-line="68"><rect x="904.036" y="705.782" width="339.964" height="78.395" fill="none" style="stroke:#9AA5B1;stroke-width:1;" rx="7.5" ry="7.5"/><rect x="909.036" y="712.782" width="23.338" height="16.099" fill="#D6E2F3" style="stroke:none;"/><text x="909.036" y="725.914" fill="#000" font-size="14" textLength="23.338" font-family="Arial">      </text><text x="936.264" y="725.914" fill="#000" font-size="14" textLength="118.289" font-family="Arial">Proceso del nivel 1</text><rect x="909.036" y="728.881" width="23.338" height="16.099" fill="#E3F1EC" style="stroke:none;"/><text x="909.036" y="742.013" fill="#000" font-size="14" textLength="23.338" font-family="Arial">      </text><text x="936.264" y="742.013" fill="#000" font-size="14" textLength="255.261" font-family="Arial">Almacén en Supabase (tablas y Storage)</text><rect x="909.036" y="744.98" width="23.338" height="16.099" fill="#EDEFF2" style="stroke:none;"/><text x="909.036" y="758.111" fill="#000" font-size="14" textLength="23.338" font-family="Arial">      </text><text x="936.264" y="758.111" fill="#000" font-size="14" textLength="113.613" font-family="Arial">Almacén en Redis</text><line x1="909.036" y1="712.782" x2="1195.414" y2="712.782" style="stroke:#000;stroke-width:1;"/><line x1="909.036" y1="728.881" x2="1195.414" y2="728.881" style="stroke:#000;stroke-width:1;"/><line x1="909.036" y1="744.98" x2="1195.414" y2="744.98" style="stroke:#000;stroke-width:1;"/><line x1="909.036" y1="761.078" x2="1195.414" y2="761.078" style="stroke:#000;stroke-width:1;"/><line x1="909.036" y1="712.782" x2="909.036" y2="761.078" style="stroke:#000;stroke-width:1;"/><line x1="932.374" y1="712.782" x2="932.374" y2="761.078" style="stroke:#000;stroke-width:1;"/><line x1="1195.414" y1="712.782" x2="1195.414" y2="761.078" style="stroke:#000;stroke-width:1;"/><text x="909.036" y="776.21" fill="#000" font-size="14" textLength="329.964" font-family="Arial">Flecha doble: el proceso lee y escribe en el almacén.</text></g><?plantuml-src ZLR1RXit4BtlLqoTGn8WigsLLdOC8u2ijOAYIIl4jK-wZBYKp9ZBtP9SkGfyw4Vq7meVUkeVr7_IB-cGN4bhIvOZmB2WzuQSUNmpv6j8XoaeCUSIskzWBen5Q0zEeDG5uwOmi02KEJAkk86CGuQsCFimbDNN8lnGC7Dms6vbqsm_p-3Vls9QXcin5Gmpeh12MOtHQp1SpmMjUO2beB_I_v-t3zvj8XRDZI50ee5Sp3GoKRZzAPUoD0UtVB8F8pIqlilWCzSvYWmGHXALlVpyYNQZUkB3kDSwVD-AOtYJSYQCUFX7GVluxJvSAeIfvEmQAV-9v21KHld2RnLtaNNn83cdFRbXMam8K0xpQZpSg_teXrBZB4VASb5K5apEBIgC99zQi0LeCRksa0dDcQNq8tCZL8aQSp3NbFcjK3EOeZIyWMHyYfMqGzBiPymvzBL0kHs_4DyujEC6sDUwk1qKij3mgjjFajxnKt0Trzu6rR5nsZdgDcCl3MTe-5cXCwwVso15YvCNMPBFkChEaDtCT56fhEOD_MUJrrphVR-VdBMZo0fB1zQmBVptnvzmzNtEZQ8g50DxxR7wo8qx6jJ0AguiZXN5C1Uz1sIzKHjUfRtpUDXPHyLZDV8RKD3WoWMKN4-5307nPa1dhFeAfVX60OkncgssB2lwMfWGsDaCx8xL-HnbXNgiM96NQCL4I95X5aAwco69AqbnJQlV23jMcJEjrTotTOXADgDw3I76obJExYLppH92UfiXHsCrA8WghGl97-wjflQfQpbQyQEiDWNifIJtfQ5YX3-PaZgL1tvAAfztXktpGPFkTFR2GewKd0udaiRRk2HnMh0gfrh3J1fS1NPd6vjq7JMaJxlRIAJa5-xho_oIMuyWJRQ5afm_2UlpU29-sjl6TreYktwuTn6VXBhXsOz1-VHe6_-OV65iFVj8Vux6sL0-_9qBkzJqc2BJy-4mZY9oSQlrmSbyufeqA1JyNX_4Yj8XoY_KSifH9eNMzIwesRMOK_SiYKVF49alP4KxRjA48ZUJTjHi4kUS5elNkmwk_A1TbXLw67FXZdH5Z8bOcy9PecAsSXj7r3qUxphS7-qZt5r1T2KnMv1NWmACKkOp4SvMrgquLcVu5Hi_k8LFMwtcmWPcvE7CkMA59eGspEBkaCgWlooUhDCZflV65auQD1lvlUXGd0mItNGnr9XH6ZVWeC42hh6s8wb9IQu9co94QMUD_yf_juKlb7GljL1Cb7JF47RgXNnIaJlOH-vV9PliJZPvATdacMG9y8dKWZtk9OUUhcmOrWyZVjazxgfUMh5NSvtzBngpRUNzk2OuiwuRYwhnlLMVtGwy-mAUl83tclWypB05Bbl06MsfjYkNngxbnC0P6JYWdPreToUQx4Hxkz0etD7XdHC1t9tMO_y3-CyTZEfdb3FQygw-2ymmrbRCVlseSWTtKPLXrBsXaUTUW0kueDR56N-xYlQZRMlq5vu9utd3nllkvFjVTLHIAEn_?></g></svg>