<svg xmlns="http://www.w3.org/2000/svg" xmlns:xlink="http://www.w3.org/1999/xlink" version="1.1" data-diagram-type="DESCRIPTION" style="width:1591px;height:1200px;background:#FFFFFF;" width="1591px" height="1200px" viewBox="0 0 1591 1200" zoomAndPan="magnify" preserveAspectRatio="none" contentStyleType="text/css"><?plantuml 1.2026.8?><defs/><g font-family="sans-serif" lengthAdjust="spacing"><g class="title" data-source-line="19"><text x="628.923" y="23.132" fill="#000" font-size="14" textLength="326.758" font-weight="700" font-family="Arial">DFD nivel 2 — Proceso 4: Evaluar compatibilidad</text></g><!--entity U--><g class="entity" data-qualified-name="U" id="ent0001" data-source-line="21"><rect x="827.5" y="280.099" width="64.695" height="47.598" fill="#D5EBE3" style="stroke:#4A5568;stroke-width:0.5;" rx="2.5" ry="2.5"/><text x="837.5" y="301.354" fill="#000" font-size="12" textLength="44.695" font-family="Arial">Persona</text><text x="837.5" y="315.153" fill="#000" font-size="12" textLength="39.357" font-family="Arial">usuaria</text></g><!--entity IA--><g class="entity" data-qualified-name="IA" id="ent0002" data-source-line="22"><rect x="813" y="521.099" width="164.076" height="61.396" fill="#FFE9AE" style="stroke:#4A5568;stroke-width:0.5;" rx="2.5" ry="2.5"/><text x="823" y="542.354" fill="#000" font-size="12" textLength="99.393" font-family="Arial">Proveedores de IA</text><text x="823" y="556.153" fill="#000" font-size="12" textLength="144.076" font-family="Arial">DeepSeek y Claude (texto)</text><text x="823" y="569.952" fill="#000" font-size="12" textLength="97.371" font-family="Arial">OpenAI (vectores)</text></g><!--entity P3--><g class="entity" data-qualified-name="P3" id="ent0003" data-source-line="23"><ellipse cx="92.978" cy="303.989" rx="58.478" ry="28.89" fill="#F1F1F1" style="stroke:#4A5568;stroke-width:0.5;"/><text x="89.641" y="288.444" fill="#000" font-size="12" font-family="Arial">3</text><text x="51.62" y="302.243" fill="#000" font-size="12" textLength="82.717" font-family="Arial">Analizar puesto</text><text x="48.626" y="316.042" fill="#000" font-size="12" textLength="88.705" font-family="Arial">(proceso vecino)</text></g><!--entity P41--><g class="entity" data-qualified-name="P41" id="ent0004" data-source-line="25"><ellipse cx="225.203" cy="427.016" rx="68.703" ry="27.417" fill="#D6E2F3" style="stroke:#4A5568;stroke-width:0.5;"/><text x="216.862" y="413.095" fill="#000" font-size="12" textLength="16.682" font-family="Arial">4.1</text><text x="169.507" y="426.894" fill="#000" font-size="12" textLength="111.393" font-family="Arial">Calcular los puntajes</text><text x="178.507" y="440.693" fill="#000" font-size="12" textLength="93.393" font-family="Arial">de compatibilidad</text></g><!--entity P42--><g class="entity" data-qualified-name="P42" id="ent0005" data-source-line="26"><ellipse cx="663.212" cy="701.082" rx="68.212" ry="27.984" fill="#D6E2F3" style="stroke:#4A5568;stroke-width:0.5;"/><text x="654.871" y="686.603" fill="#000" font-size="12" textLength="16.682" font-family="Arial">4.2</text><text x="609.186" y="700.401" fill="#000" font-size="12" textLength="108.053" font-family="Arial">Explicar el resultado</text><text x="614.518" y="714.2" fill="#000" font-size="12" textLength="97.389" font-family="Arial">con IA y guardarlo</text></g><!--entity P43--><g class="entity" data-qualified-name="P43" id="ent0006" data-source-line="27"><ellipse cx="517.199" cy="427.028" rx="80.699" ry="28.929" fill="#D6E2F3" style="stroke:#4A5568;stroke-width:0.5;"/><text x="508.858" y="411.547" fill="#000" font-size="12" textLength="16.682" font-family="Arial">4.3</text><text x="467.172" y="425.346" fill="#000" font-size="12" textLength="100.055" font-family="Arial">Entregar el reporte</text><text x="455.175" y="439.145" fill="#000" font-size="12" textLength="124.049" font-family="Arial">y registrar la valoración</text></g><!--entity P44--><g class="entity" data-qualified-name="P44" id="ent0007" data-source-line="28"><ellipse cx="1325.758" cy="701.179" rx="43.758" ry="29.081" fill="#D6E2F3" style="stroke:#4A5568;stroke-width:0.5;"/><text x="1317.417" y="685.949" fill="#000" font-size="12" textLength="16.682" font-family="Arial">4.4</text><text x="1303.088" y="699.748" fill="#000" font-size="12" textLength="45.34" font-family="Arial">Armar el</text><text x="1293.412" y="713.547" fill="#000" font-size="12" textLength="64.693" font-family="Arial">reporte ATS</text></g><!--entity P45--><g class="entity" data-qualified-name="P45" id="ent0008" data-source-line="29"><ellipse cx="859.914" cy="183.903" rx="55.914" ry="25.805" fill="#D6E2F3" style="stroke:#4A5568;stroke-width:0.5;"/><text x="851.573" y="171.683" fill="#000" font-size="12" textLength="16.682" font-family="Arial">4.5</text><text x="811.888" y="185.481" fill="#000" font-size="12" textLength="96.053" font-family="Arial">Analizar la brecha</text><text x="830.225" y="199.28" fill="#000" font-size="12" textLength="59.379" font-family="Arial">de realidad</text></g><!--entity P46--><g class="entity" data-qualified-name="P46" id="ent0009" data-source-line="30"><ellipse cx="959.01" cy="427.125" rx="70.51" ry="26.026" fill="#EDE7F6" style="stroke:#4A5568;stroke-width:0.5;"/><text x="950.669" y="414.574" fill="#000" font-size="12" textLength="16.682" font-family="Arial">4.6</text><text x="898.325" y="428.373" fill="#000" font-size="12" textLength="121.371" font-family="Arial">Optimizar el CV con IA</text><text x="919.002" y="442.172" fill="#000" font-size="12" textLength="80.016" font-family="Arial">(solo premium)</text></g><!--entity P47--><g class="entity" data-qualified-name="P47" id="ent0010" data-source-line="31"><ellipse cx="179.17" cy="942.812" rx="54.17" ry="25.213" fill="#D6E2F3" style="stroke:#4A5568;stroke-width:0.5;"/><text x="170.829" y="931.25" fill="#000" font-size="12" textLength="16.682" font-family="Arial">4.7</text><text x="131.489" y="945.048" fill="#000" font-size="12" textLength="95.361" font-family="Arial">Armar el resumen</text><text x="154.815" y="958.847" fill="#000" font-size="12" textLength="48.709" font-family="Arial">del panel</text></g><!--entity P48--><g class="entity" data-qualified-name="P48" id="ent0011" data-source-line="32"><ellipse cx="1437.817" cy="942.706" rx="55.817" ry="25.607" fill="#D6E2F3" style="stroke:#4A5568;stroke-width:0.5;"/><text x="1429.476" y="930.681" fill="#000" font-size="12" textLength="16.682" font-family="Arial">4.8</text><text x="1389.459" y="944.48" fill="#000" font-size="12" textLength="96.715" font-family="Arial">Informar el estado</text><text x="1409.463" y="958.279" fill="#000" font-size="12" textLength="56.707" font-family="Arial">de la tarea</text></g><!--entity D1--><g class="entity" data-qualified-name="D1" id="ent0012" data-source-line="34"><path d="M1244.5,285.599 C1244.5,275.599 1302.189,275.599 1302.189,275.599 C1302.189,275.599 1359.879,275.599 1359.879,285.599 L1359.879,322.196 C1359.879,332.196 1302.189,332.196 1302.189,332.196 C1302.189,332.196 1244.5,332.196 1244.5,322.196 L1244.5,285.599" style="stroke:#4A5568;stroke-width:0.5;" fill="#E3F1EC"/><path d="M1244.5,285.599 C1244.5,295.599 1302.189,295.599 1302.189,295.599 C1302.189,295.599 1359.879,295.599 1359.879,285.599" style="stroke:#4A5568;stroke-width:0.5;" fill="none"/><text x="1254.5" y="310.854" fill="#000" font-size="12" textLength="15.34" font-family="Arial">D1</text><text x="1254.5" y="324.653" fill="#000" font-size="12" textLength="95.379" font-family="Arial">Usuarios y planes</text></g><!--entity D2--><g class="entity" data-qualified-name="D2" id="ent0013" data-source-line="35"><path d="M140,59.099 C140,49.099 187.011,49.099 187.011,49.099 C187.011,49.099 234.021,49.099 234.021,59.099 L234.021,95.696 C234.021,105.696 187.011,105.696 187.011,105.696 C187.011,105.696 140,105.696 140,95.696 L140,59.099" style="stroke:#4A5568;stroke-width:0.5;" fill="#E3F1EC"/><path d="M140,59.099 C140,69.099 187.011,69.099 187.011,69.099 C187.011,69.099 234.021,69.099 234.021,59.099" style="stroke:#4A5568;stroke-width:0.5;" fill="none"/><text x="150" y="84.354" fill="#000" font-size="12" textLength="15.34" font-family="Arial">D2</text><text x="150" y="98.153" fill="#000" font-size="12" textLength="74.021" font-family="Arial">Perfil maestro</text></g><!--entity D3--><g class="entity" data-qualified-name="D3" id="ent0014" data-source-line="36"><path d="M984,59.099 C984,49.099 1046.025,49.099 1046.025,49.099 C1046.025,49.099 1108.051,49.099 1108.051,59.099 L1108.051,95.696 C1108.051,105.696 1046.025,105.696 1046.025,105.696 C1046.025,105.696 984,105.696 984,95.696 L984,59.099" style="stroke:#4A5568;stroke-width:0.5;" fill="#E3F1EC"/><path d="M984,59.099 C984,69.099 1046.025,69.099 1046.025,69.099 C1046.025,69.099 1108.051,69.099 1108.051,59.099" style="stroke:#4A5568;stroke-width:0.5;" fill="none"/><text x="994" y="84.354" fill="#000" font-size="12" textLength="15.34" font-family="Arial">D3</text><text x="994" y="98.153" fill="#000" font-size="12" textLength="104.051" font-family="Arial">Documentos de CV</text></g><!--entity D4--><g class="entity" data-qualified-name="D4" id="ent0015" data-source-line="37"><path d="M405.5,285.599 C405.5,275.599 437.18,275.599 437.18,275.599 C437.18,275.599 468.859,275.599 468.859,285.599 L468.859,322.196 C468.859,332.196 437.18,332.196 437.18,332.196 C437.18,332.196 405.5,332.196 405.5,322.196 L405.5,285.599" style="stroke:#4A5568;stroke-width:0.5;" fill="#E3F1EC"/><path d="M405.5,285.599 C405.5,295.599 437.18,295.599 437.18,295.599 C437.18,295.599 468.859,295.599 468.859,285.599" style="stroke:#4A5568;stroke-width:0.5;" fill="none"/><text x="415.5" y="310.854" fill="#000" font-size="12" textLength="15.34" font-family="Arial">D4</text><text x="415.5" y="324.653" fill="#000" font-size="12" textLength="43.359" font-family="Arial">Puestos</text></g><!--entity D5--><g class="entity" data-qualified-name="D5" id="ent0016" data-source-line="38"><path d="M287.5,805.099 C287.5,795.099 335.858,795.099 335.858,795.099 C335.858,795.099 384.217,795.099 384.217,805.099 L384.217,855.495 C384.217,865.495 335.858,865.495 335.858,865.495 C335.858,865.495 287.5,865.495 287.5,855.495 L287.5,805.099" style="stroke:#4A5568;stroke-width:0.5;" fill="#E3F1EC"/><path d="M287.5,805.099 C287.5,815.099 335.858,815.099 335.858,815.099 C335.858,815.099 384.217,815.099 384.217,805.099" style="stroke:#4A5568;stroke-width:0.5;" fill="none"/><text x="297.5" y="830.354" fill="#000" font-size="12" textLength="15.34" font-family="Arial">D5</text><text x="297.5" y="844.153" fill="#000" font-size="12" textLength="76.717" font-family="Arial">Resultados de</text><text x="297.5" y="857.952" fill="#000" font-size="12" textLength="76.711" font-family="Arial">compatibilidad</text></g><!--entity D8--><g class="entity" data-qualified-name="D8" id="ent0017" data-source-line="39"><path d="M1270.5,805.099 C1270.5,795.099 1325.863,795.099 1325.863,795.099 C1325.863,795.099 1381.227,795.099 1381.227,805.099 L1381.227,855.495 C1381.227,865.495 1325.863,865.495 1325.863,865.495 C1325.863,865.495 1270.5,865.495 1270.5,855.495 L1270.5,805.099" style="stroke:#4A5568;stroke-width:0.5;" fill="#EDEFF2"/><path d="M1270.5,805.099 C1270.5,815.099 1325.863,815.099 1325.863,815.099 C1325.863,815.099 1381.227,815.099 1381.227,805.099" style="stroke:#4A5568;stroke-width:0.5;" fill="none"/><text x="1280.5" y="830.354" fill="#000" font-size="12" textLength="15.34" font-family="Arial">D8</text><text x="1280.5" y="844.153" fill="#000" font-size="12" textLength="90.727" font-family="Arial">Estado de tareas</text><text x="1280.5" y="857.952" fill="#000" font-size="12" textLength="44.004" font-family="Arial">y límites</text></g><g class="link" data-entity-1="ent0003" data-entity-2="ent0004" id="lnk18" data-link-type="dependency"><polygon points="156.188,420.232,148.301,414.333,151.313,419.122,146.525,422.134,156.188,420.232" fill="#4A5568" style="stroke:#4A5568;stroke-width:1;stroke-linejoin:miter;stroke-miterlimit:10;"/><path d="M81.953,333.144 C77.896,348.364 76.351,366.742 86,380.099 C102.225,402.558 124.957,413.121 151.313,419.122" style="stroke:#4A5568;stroke-width:1;" fill="none"/><text x="94.115" y="363.417" fill="#2D3748" font-size="11" textLength="71.543" font-family="Arial">Identificadores</text><text x="88" y="376.065" fill="#2D3748" font-size="11" textLength="83.773" font-family="Arial">de puesto y perfil</text></g><g class="link" data-entity-1="ent0013" data-entity-2="ent0004" id="lnk19" data-link-type="dependency"><polygon points="209.023,399.575,208.546,389.737,206.773,395.109,201.401,393.337,209.023,399.575" fill="#4A5568" style="stroke:#4A5568;stroke-width:1;stroke-linejoin:miter;stroke-miterlimit:10;"/><path d="M183.858,106.379 C178.698,160.447 171.706,283.028 201,380.099 C202.978,386.653 203.647,388.904 206.773,395.109" style="stroke:#4A5568;stroke-width:1;" fill="none"/><text x="194.303" y="240.417" fill="#2D3748" font-size="11" textLength="143.688" font-family="Arial">Perfil, habilidades con vector,</text><text x="183" y="253.065" fill="#2D3748" font-size="11" textLength="166.294" font-family="Arial">estudios, idiomas y certificaciones</text></g><g class="link" data-entity-1="ent0015" data-entity-2="ent0004" id="lnk20" data-link-type="dependency"><polygon points="225.48,399.372,230.432,390.859,226.022,394.402,222.479,389.992,225.48,399.372" fill="#4A5568" style="stroke:#4A5568;stroke-width:1;stroke-linejoin:miter;stroke-miterlimit:10;"/><path d="M405.212,320.787 C394.835,325.364 383.118,329.97 372,333.099 C344.773,340.761 267.267,332.452 246,351.099 C232.376,363.044 227.803,378.062 226.022,394.402" style="stroke:#4A5568;stroke-width:1;" fill="none"/><text x="248" y="363.417" fill="#2D3748" font-size="11" textLength="98.447" font-family="Arial">Puesto estructurado</text><text x="264.513" y="376.065" fill="#2D3748" font-size="11" textLength="65.42" font-family="Arial">con su vector</text></g><g class="link" data-entity-1="ent0014" data-entity-2="ent0004" id="lnk21" data-link-type="dependency"><polygon points="219.72,399.35,222.729,389.972,219.182,394.379,214.775,390.832,219.72,399.35" fill="#4A5568" style="stroke:#4A5568;stroke-width:1;stroke-linejoin:miter;stroke-miterlimit:10;"/><path d="M983.611,78.028 C855.508,77.755 567.507,82.011 480,124.099 C406.896,159.259 415.823,203.423 355,257.099 C301.81,304.038 258.583,288.084 226,351.099 C218.404,365.789 217.561,379.391 219.182,394.379" style="stroke:#4A5568;stroke-width:1;" fill="none"/><text x="385" y="246.917" fill="#2D3748" font-size="11" textLength="107.604" font-family="Arial">Texto del CV principal</text></g><g class="link" data-entity-1="ent0004" data-entity-2="ent0017" id="lnk22" data-link-type="dependency"><polygon points="1270.36,827.977,1261.451,823.779,1265.361,827.867,1261.274,831.777,1270.36,827.977" fill="#4A5568" style="stroke:#4A5568;stroke-width:1;stroke-linejoin:miter;stroke-miterlimit:10;"/><path d="M255.232,454.838 C289.435,486.515 344.813,542.319 379,600.099 C391.956,621.995 385.001,632.228 398,654.099 C435.621,717.398 442.698,745.063 509,777.099 C577.145,810.025 1092.483,824.048 1265.361,827.867" style="stroke:#4A5568;stroke-width:1;" fill="none"/><text x="400" y="631.417" fill="#2D3748" font-size="11" textLength="89.284" font-family="Arial">Estado de la tarea</text></g><g class="link" data-entity-1="ent0004" data-entity-2="ent0005" id="lnk23" data-link-type="dependency"><polygon points="651.444,673.017,651.535,663.168,649.456,668.429,644.195,666.349,651.444,673.017" fill="#4A5568" style="stroke:#4A5568;stroke-width:1;stroke-linejoin:miter;stroke-miterlimit:10;"/><path d="M293.8,442.642 C379.151,463.871 524.555,510.906 616,600.099 C621.648,605.607 637.456,640.739 649.456,668.429" style="stroke:#4A5568;stroke-width:1;" fill="none"/><text x="599.89" y="549.417" fill="#2D3748" font-size="11" textLength="92.952" font-family="Arial">Puntajes, potencial</text><text x="595" y="562.065" fill="#2D3748" font-size="11" textLength="102.733" font-family="Arial">y origen de la brecha</text></g><g class="link" data-entity-1="ent0012" data-entity-2="ent0005" id="lnk24" data-link-type="dependency"><polygon points="731.193,693.874,740.577,696.864,736.163,693.327,739.701,688.912,731.193,693.874" fill="#4A5568" style="stroke:#4A5568;stroke-width:1;stroke-linejoin:miter;stroke-miterlimit:10;"/><path d="M1302.364,332.609 C1301.297,347.843 1297.775,366.408 1288,380.099 C1238.734,449.101 1188.553,421.57 1122,474.099 C1108.177,485.009 1108.191,491.432 1095,503.099 C1050.183,542.735 1039.064,554.46 986,582.099 C964.309,593.397 952.502,584.104 934,600.099 C913.548,617.779 927.688,637.959 906,654.099 C878.874,674.285 798.117,686.496 736.163,693.327" style="stroke:#4A5568;stroke-width:1;" fill="none"/><text x="1124" y="492.917" fill="#2D3748" font-size="11" textLength="91.733" font-family="Arial">Plan de la persona</text></g><g class="link" data-entity-1="ent0005" data-entity-2="ent0002" id="lnk25" data-link-type="dependency"><polygon points="812.889,580.023,803.089,581.001,808.544,582.497,807.048,587.953,812.889,580.023" fill="#4A5568" style="stroke:#4A5568;stroke-width:1;stroke-linejoin:miter;stroke-miterlimit:10;"/><path d="M731.186,677.052 C742.808,670.919 754.01,663.349 763,654.099 C781.181,635.392 767.631,618.621 786,600.099 C793.777,592.257 798.718,588.093 808.544,582.497" style="stroke:#4A5568;stroke-width:1;" fill="none"/><text x="788" y="624.917" fill="#2D3748" font-size="11" textLength="116.784" font-family="Arial">F24.4 Instrucciones con</text><text x="789.829" y="637.565" fill="#2D3748" font-size="11" textLength="113.126" font-family="Arial">el resultado y el puesto</text></g><g class="link" data-entity-1="ent0002" data-entity-2="ent0005" id="lnk26" data-link-type="dependency"><polygon points="653.278,672.791,654.793,663.059,651.974,667.964,647.07,665.145,653.278,672.791" fill="#4A5568" style="stroke:#4A5568;stroke-width:1;stroke-linejoin:miter;stroke-miterlimit:10;"/><path d="M812.897,564.024 C749.129,573.739 669.9,587.997 660,600.099 C643.613,620.129 646.014,645.892 651.974,667.964" style="stroke:#4A5568;stroke-width:1;" fill="none"/><text x="666.281" y="624.917" fill="#2D3748" font-size="11" textLength="86.824" font-family="Arial">F26.4 Explicación</text><text x="662" y="637.565" fill="#2D3748" font-size="11" textLength="95.385" font-family="Arial">y recomendaciones</text></g><g class="link" data-entity-1="ent0005" data-entity-2="ent0016" id="lnk27" data-link-type="dependency"><polygon points="384.761,810.38,394.597,810.884,389.428,808.586,391.726,803.417,384.761,810.38" fill="#4A5568" style="stroke:#4A5568;stroke-width:1;stroke-linejoin:miter;stroke-miterlimit:10;"/><path d="M594.608,728.905 C557.964,743.244 512.038,761.18 471,777.099 C442.432,788.18 415.1,798.715 389.428,808.586" style="stroke:#4A5568;stroke-width:1;" fill="none"/><text x="547" y="760.417" fill="#2D3748" font-size="11" textLength="148.581" font-family="Arial">MatchScore, potencial, brecha</text><text x="573.598" y="773.065" fill="#2D3748" font-size="11" textLength="95.385" font-family="Arial">y recomendaciones</text></g><g class="link" data-entity-1="ent0016" data-entity-2="ent0006" id="lnk28" data-link-type="dependency"><polygon points="446.846,456.205,437,456.443,442.328,458.346,440.426,463.673,446.846,456.205" fill="#4A5568" style="stroke:#4A5568;stroke-width:1;stroke-linejoin:miter;stroke-miterlimit:10;"/><path d="M312.383,794.827 C283.665,748.531 242.889,664.409 276,600.099 C311.589,530.975 384.732,485.632 442.328,458.346" style="stroke:#4A5568;stroke-width:1;" fill="none"/><text x="278" y="631.417" fill="#2D3748" font-size="11" textLength="99.075" font-family="Arial">Resultado guardado</text></g><g class="link" data-entity-1="ent0015" data-entity-2="ent0006" id="lnk29" data-link-type="dependency"><polygon points="436.354,410.841,429.654,403.623,431.757,408.874,426.506,410.978,436.354,410.841" fill="#4A5568" style="stroke:#4A5568;stroke-width:1;stroke-linejoin:miter;stroke-miterlimit:10;"/><path d="M406.908,332.628 C394.697,347.172 385.637,365.073 396,380.099 C405.761,394.252 415.896,402.087 431.757,408.874" style="stroke:#4A5568;stroke-width:1;" fill="none"/><text x="398" y="369.917" fill="#2D3748" font-size="11" textLength="34.246" font-family="Arial">Puesto</text></g><g class="link" data-entity-1="ent0001" data-entity-2="ent0006" id="lnk30" data-link-type="dependency"><polygon points="554.66,397.945,564.336,396.108,558.77,395.098,559.78,389.532,554.66,397.945" fill="#4A5568" style="stroke:#4A5568;stroke-width:1;stroke-linejoin:miter;stroke-miterlimit:10;"/><path d="M827.361,308.247 C783.144,313.313 702.343,325.429 638,351.099 C608.272,362.958 581.767,379.164 558.77,395.098" style="stroke:#4A5568;stroke-width:1;" fill="none"/><text x="640" y="363.417" fill="#2D3748" font-size="11" textLength="77.043" font-family="Arial">F5.1 Valoración</text><text x="654.677" y="376.065" fill="#2D3748" font-size="11" textLength="47.69" font-family="Arial">del match</text></g><g class="link" data-entity-1="ent0006" data-entity-2="ent0016" id="lnk31" data-link-type="dependency"><polygon points="380.144,794.791,389.59,792.005,383.951,791.551,384.405,785.912,380.144,794.791" fill="#4A5568" style="stroke:#4A5568;stroke-width:1;stroke-linejoin:miter;stroke-miterlimit:10;"/><path d="M519.76,456.298 C522.909,500.523 524.317,587.967 495,654.099 C469.546,711.515 421.532,759.569 383.951,791.551" style="stroke:#4A5568;stroke-width:1;" fill="none"/><text x="514" y="631.417" fill="#2D3748" font-size="11" textLength="94.789" font-family="Arial">Valoración de 1 a 5</text></g><g class="link" data-entity-1="ent0006" data-entity-2="ent0001" id="lnk32" data-link-type="dependency"><polygon points="827.266,318.341,817.418,318.194,822.667,320.303,820.558,325.552,827.266,318.341" fill="#4A5568" style="stroke:#4A5568;stroke-width:1;stroke-linejoin:miter;stroke-miterlimit:10;"/><path d="M597.978,415.13 C635.853,408.141 680.9,397.102 719,380.099 C739.382,371.002 740.668,362.254 760,351.099 C781.683,338.586 802.761,328.797 822.667,320.303" style="stroke:#4A5568;stroke-width:1;" fill="none"/><text x="769.646" y="363.417" fill="#2D3748" font-size="11" textLength="70.318" font-family="Arial">F12.1 Reporte</text><text x="762" y="376.065" fill="#2D3748" font-size="11" textLength="85.61" font-family="Arial">de compatibilidad</text></g><g class="link" data-entity-1="ent0015" data-entity-2="ent0007" id="lnk33" data-link-type="dependency"><polygon points="1326.085,671.706,1329.478,662.46,1325.753,666.717,1321.495,662.992,1326.085,671.706" fill="#4A5568" style="stroke:#4A5568;stroke-width:1;stroke-linejoin:miter;stroke-miterlimit:10;"/><path d="M468.769,306.244 C528.599,309.141 654.381,318.992 681,351.099 C724.133,403.123 630.625,453.943 677,503.099 C700.601,528.114 952.007,515.88 986,521.099 C1003.78,523.828 1287.23,587.429 1300,600.099 C1318.847,618.797 1324.259,644.309 1325.753,666.717" style="stroke:#4A5568;stroke-width:1;" fill="none"/><text x="679" y="492.917" fill="#2D3748" font-size="11" textLength="113.11" font-family="Arial">Puesto y sus requisitos</text></g><g class="link" data-entity-1="ent0014" data-entity-2="ent0007" id="lnk34" data-link-type="dependency"><polygon points="1370.004,679.474,1379.82,678.667,1374.391,677.076,1375.983,671.647,1370.004,679.474" fill="#4A5568" style="stroke:#4A5568;stroke-width:1;stroke-linejoin:miter;stroke-miterlimit:10;"/><path d="M1108.235,80.915 C1226.94,87.037 1474,108.714 1474,183.099 C1474,183.099 1474,183.099 1474,552.599 C1474,611.91 1418.018,653.228 1374.391,677.076" style="stroke:#4A5568;stroke-width:1;" fill="none"/><text x="1476" y="369.917" fill="#2D3748" font-size="11" textLength="107.604" font-family="Arial">Texto del CV principal</text></g><g class="link" data-entity-1="ent0012" data-entity-2="ent0007" id="lnk35" data-link-type="dependency"><polygon points="1343.46,671.736,1350.952,665.343,1345.617,667.226,1343.735,661.891,1343.46,671.736" fill="#4A5568" style="stroke:#4A5568;stroke-width:1;stroke-linejoin:miter;stroke-miterlimit:10;"/><path d="M1310.832,332.719 C1312.641,338.749 1314.46,345.116 1316,351.099 C1343.837,459.268 1346.46,488.461 1350,600.099 C1350.761,624.087 1355.715,630.789 1350,654.099 C1348.541,660.048 1348.322,661.571 1345.617,667.226" style="stroke:#4A5568;stroke-width:1;" fill="none"/><text x="1347" y="492.917" fill="#2D3748" font-size="11" textLength="91.733" font-family="Arial">Plan de la persona</text></g><g class="link" data-entity-1="ent0007" data-entity-2="ent0017" id="lnk36" data-link-type="dependency"><polygon points="1326,794.657,1330,785.657,1326,789.657,1322,785.657,1326,794.657" fill="#4A5568" style="stroke:#4A5568;stroke-width:1;stroke-linejoin:miter;stroke-miterlimit:10;"/><path d="M1326,730.284 C1326,749.284 1326,769.469 1326,789.657" style="stroke:#4A5568;stroke-width:1;" fill="none"/><text x="1328" y="766.917" fill="#2D3748" font-size="11" textLength="140.035" font-family="Arial">Contador de reportes del día</text></g><g class="link" data-entity-1="ent0007" data-entity-2="ent0002" id="lnk37" data-link-type="dependency"><polygon points="977.16,562.373,985.485,567.636,982.108,563.098,986.645,559.72,977.16,562.373" fill="#4A5568" style="stroke:#4A5568;stroke-width:1;stroke-linejoin:miter;stroke-miterlimit:10;"/><path d="M1281.837,700.124 C1240.203,697.873 1178.339,688.356 1138,654.099 C1118.116,637.213 1135.112,616.711 1115,600.099 C1093.987,582.742 1035.495,570.922 982.108,563.098" style="stroke:#4A5568;stroke-width:1;" fill="none"/><text x="1140" y="612.417" fill="#2D3748" font-size="11" textLength="158.356" font-family="Arial">F24.4 Instrucciones para extraer</text><text x="1183.713" y="625.065" fill="#2D3748" font-size="11" textLength="70.931" font-family="Arial">palabras clave</text><text x="1154.983" y="637.714" fill="#2D3748" font-size="11" textLength="128.391" font-family="Arial">F25.4 Palabras y términos</text><text x="1190.751" y="650.363" fill="#2D3748" font-size="11" textLength="56.853" font-family="Arial">a vectorizar</text></g><g class="link" data-entity-1="ent0002" data-entity-2="ent0007" id="lnk38" data-link-type="dependency"><polygon points="1281.828,699.669,1272.904,695.501,1276.829,699.576,1272.755,703.5,1281.828,699.669" fill="#4A5568" style="stroke:#4A5568;stroke-width:1;stroke-linejoin:miter;stroke-miterlimit:10;"/><path d="M907.368,582.168 C919.144,608.842 936.955,645.213 950,654.099 C1003.13,690.289 1189.394,697.938 1276.829,699.576" style="stroke:#4A5568;stroke-width:1;" fill="none"/><text x="952" y="624.917" fill="#2D3748" font-size="11" textLength="157.153" font-family="Arial">F26.4 Palabras clave del puesto</text><text x="958.118" y="637.565" fill="#2D3748" font-size="11" textLength="144.917" font-family="Arial">F27.4 Vectores de significado</text></g><g class="link" data-entity-1="ent0007" data-entity-2="ent0001" id="lnk39" data-link-type="dependency"><polygon points="892.713,308.866,901.082,314.058,897.666,309.549,902.175,306.133,892.713,308.866" fill="#4A5568" style="stroke:#4A5568;stroke-width:1;stroke-linejoin:miter;stroke-miterlimit:10;"/><path d="M1330.814,671.971 C1333.141,651.379 1333.795,623.13 1325,600.099 C1304.551,546.549 1274.68,548.739 1240,503.099 C1230.677,490.83 1231.609,485.274 1221,474.099 C1157.287,406.985 1137,389.926 1053,351.099 C999.846,326.53 937.132,314.989 897.666,309.549" style="stroke:#4A5568;stroke-width:1;" fill="none"/><text x="1242" y="492.917" fill="#2D3748" font-size="11" textLength="94.768" font-family="Arial">F12.2 Reporte ATS</text></g><g class="link" data-entity-1="ent0013" data-entity-2="ent0008" id="lnk40" data-link-type="dependency"><polygon points="803.819,174.375,795.54,169.042,798.879,173.608,794.312,176.947,803.819,174.375" fill="#4A5568" style="stroke:#4A5568;stroke-width:1;stroke-linejoin:miter;stroke-miterlimit:10;"/><path d="M234.057,85.905 C354.559,104.616 668.949,153.433 798.879,173.608" style="stroke:#4A5568;stroke-width:1;" fill="none"/><text x="566" y="136.417" fill="#2D3748" font-size="11" textLength="120.452" font-family="Arial">Habilidades confirmadas</text></g><g class="link" data-entity-1="ent0014" data-entity-2="ent0008" id="lnk41" data-link-type="dependency"><polygon points="904.808,157.924,914.613,157.003,909.167,155.475,910.695,150.029,904.808,157.924" fill="#4A5568" style="stroke:#4A5568;stroke-width:1;stroke-linejoin:miter;stroke-miterlimit:10;"/><path d="M996.644,106.328 C968.123,122.352 936.88,139.905 909.167,155.475" style="stroke:#4A5568;stroke-width:1;" fill="none"/><text x="967" y="136.417" fill="#2D3748" font-size="11" textLength="107.604" font-family="Arial">Texto del CV principal</text></g><g class="link" data-entity-1="ent0008" data-entity-2="ent0001" id="lnk42" data-link-type="dependency"><polygon points="860,279.715,864,270.715,860,274.715,856,270.715,860,279.715" fill="#4A5568" style="stroke:#4A5568;stroke-width:1;stroke-linejoin:miter;stroke-miterlimit:10;"/><path d="M860,210.123 C860,230.69 860,254.611 860,274.715" style="stroke:#4A5568;stroke-width:1;" fill="none"/><text x="864.755" y="240.417" fill="#2D3748" font-size="11" textLength="85.61" font-family="Arial">F12.3 Reporte de</text><text x="862" y="253.065" fill="#2D3748" font-size="11" textLength="91.121" font-family="Arial">brecha de realidad</text></g><g class="link" data-entity-1="ent0001" data-entity-2="ent0009" id="lnk43" data-link-type="dependency"><polygon points="888.29,404.924,882.527,396.937,883.97,402.407,878.5,403.849,888.29,404.924" fill="#4A5568" style="stroke:#4A5568;stroke-width:1;stroke-linejoin:miter;stroke-miterlimit:10;"/><path d="M854.29,328.244 C851.74,344.082 851.192,364.886 861,380.099 C867.721,390.524 873.171,396.115 883.97,402.407" style="stroke:#4A5568;stroke-width:1;" fill="none"/><text x="863" y="363.417" fill="#2D3748" font-size="11" textLength="72.762" font-family="Arial">F8 Solicitud de</text><text x="863.615" y="376.065" fill="#2D3748" font-size="11" textLength="71.532" font-family="Arial">CV optimizado</text></g><g class="link" data-entity-1="ent0012" data-entity-2="ent0009" id="lnk44" data-link-type="dependency"><polygon points="1029.506,422.66,1038.897,425.627,1034.474,422.1,1038.001,417.677,1029.506,422.66" fill="#4A5568" style="stroke:#4A5568;stroke-width:1;stroke-linejoin:miter;stroke-miterlimit:10;"/><path d="M1244.483,323.127 C1226.952,330.211 1208.291,339.479 1193,351.099 C1179.902,361.052 1183.96,371.396 1170,380.099 C1127.844,406.38 1077.77,417.218 1034.474,422.1" style="stroke:#4A5568;stroke-width:1;" fill="none"/><text x="1195" y="369.917" fill="#2D3748" font-size="11" textLength="91.733" font-family="Arial">Plan de la persona</text></g><g class="link" data-entity-1="ent0014" data-entity-2="ent0009" id="lnk45" data-link-type="dependency"><polygon points="1029.818,401.571,1039.549,400.052,1034.019,398.86,1035.211,393.33,1029.818,401.571" fill="#4A5568" style="stroke:#4A5568;stroke-width:1;stroke-linejoin:miter;stroke-miterlimit:10;"/><path d="M1070.825,106.128 C1074.594,111.724 1077.916,117.829 1080,124.099 C1082.243,130.847 1080.398,132.999 1080,140.099 C1073.991,247.27 1114.831,292.356 1053,380.099 C1046.93,388.713 1042.987,393.074 1034.019,398.86" style="stroke:#4A5568;stroke-width:1;" fill="none"/><text x="1088" y="246.917" fill="#2D3748" font-size="11" textLength="86.824" font-family="Arial">Secciones del CV</text></g><g class="link" data-entity-1="ent0015" data-entity-2="ent0009" id="lnk46" data-link-type="dependency"><polygon points="888.498,420.637,879.839,415.946,883.514,420.246,879.213,423.921,888.498,420.637" fill="#4A5568" style="stroke:#4A5568;stroke-width:1;stroke-linejoin:miter;stroke-miterlimit:10;"/><path d="M437.75,332.83 C439.753,349.132 445.17,368.716 459,380.099 C467.198,386.846 747.666,409.585 883.514,420.246" style="stroke:#4A5568;stroke-width:1;" fill="none"/><text x="461" y="369.917" fill="#2D3748" font-size="11" textLength="116.789" font-family="Arial">Puesto y palabras clave</text></g><g class="link" data-entity-1="ent0009" data-entity-2="ent0002" id="lnk47" data-link-type="dependency"><polygon points="929.909,521.095,938.903,517.081,933.254,517.378,932.957,511.729,929.909,521.095" fill="#4A5568" style="stroke:#4A5568;stroke-width:1;stroke-linejoin:miter;stroke-miterlimit:10;"/><path d="M957.266,453.335 C955.362,468.515 951.368,487.796 943,503.099 C939.513,509.476 938.244,511.834 933.254,517.378" style="stroke:#4A5568;stroke-width:1;" fill="none"/><text x="956" y="486.417" fill="#2D3748" font-size="11" textLength="133.901" font-family="Arial">F24.4 Instrucciones con las</text><text x="969.763" y="499.065" fill="#2D3748" font-size="11" textLength="106.375" font-family="Arial">secciones a reescribir</text></g><g class="link" data-entity-1="ent0002" data-entity-2="ent0009" id="lnk48" data-link-type="dependency"><polygon points="888.265,440.429,878.619,438.442,883.38,441.497,880.326,446.258,888.265,440.429" fill="#4A5568" style="stroke:#4A5568;stroke-width:1;stroke-linejoin:miter;stroke-miterlimit:10;"/><path d="M819.105,521.065 C812.779,515.954 807.208,510.007 803,503.099 C796.295,492.091 795.282,484.421 803,474.099 C813.737,459.739 847.329,449.373 883.38,441.497" style="stroke:#4A5568;stroke-width:1;" fill="none"/><text x="805" y="492.917" fill="#2D3748" font-size="11" textLength="132.671" font-family="Arial">F26.4 Secciones reescritas</text></g><g class="link" data-entity-1="ent0009" data-entity-2="ent0001" id="lnk49" data-link-type="dependency"><polygon points="892.807,317.931,899.132,325.481,897.298,320.13,902.65,318.296,892.807,317.931" fill="#4A5568" style="stroke:#4A5568;stroke-width:1;stroke-linejoin:miter;stroke-miterlimit:10;"/><path d="M956.357,401.029 C953.637,385.351 948.131,365.476 937,351.099 C925.656,336.446 912.711,327.675 897.298,320.13" style="stroke:#4A5568;stroke-width:1;" fill="none"/><text x="954" y="369.917" fill="#2D3748" font-size="11" textLength="93.543" font-family="Arial">F13 CV optimizado</text></g><g class="link" data-entity-1="ent0013" data-entity-2="ent0010" id="lnk50" data-link-type="dependency"><polygon points="124.736,930.819,117.08,924.624,119.907,929.524,115.007,932.351,124.736,930.819" fill="#4A5568" style="stroke:#4A5568;stroke-width:1;stroke-linejoin:miter;stroke-miterlimit:10;"/><path d="M139.917,85.079 C86.287,95.421 6,121.233 6,183.099 C6,183.099 6,183.099 6,831.099 C6,888.299 69.172,915.914 119.907,929.524" style="stroke:#4A5568;stroke-width:1;" fill="none"/><text x="8" y="486.417" fill="#2D3748" font-size="11" textLength="94.778" font-family="Arial">Porcentaje de perfil</text><text x="23.283" y="499.065" fill="#2D3748" font-size="11" textLength="64.211" font-family="Arial">y habilidades</text></g><g class="link" data-entity-1="ent0016" data-entity-2="ent0010" id="lnk51" data-link-type="dependency"><polygon points="213.529,917.297,223.191,915.388,217.617,914.419,218.586,908.846,213.529,917.297" fill="#4A5568" style="stroke:#4A5568;stroke-width:1;stroke-linejoin:miter;stroke-miterlimit:10;"/><path d="M287.614,865.154 C263.648,882.022 239.356,899.119 217.617,914.419" style="stroke:#4A5568;stroke-width:1;" fill="none"/><text x="260" y="895.417" fill="#2D3748" font-size="11" textLength="90.476" font-family="Arial">Últimos resultados</text></g><g class="link" data-entity-1="ent0010" data-entity-2="ent0001" id="lnk52" data-link-type="dependency"><polygon points="827.437,306.815,818.232,303.312,822.444,307.088,818.668,311.3,827.437,306.815" fill="#4A5568" style="stroke:#4A5568;stroke-width:1;stroke-linejoin:miter;stroke-miterlimit:10;"/><path d="M174.415,917.438 C164.629,860.176 145.779,712.578 187,600.099 C187.765,598.012 386.044,352.153 388,351.099 C426.547,330.32 722.02,312.581 822.444,307.088" style="stroke:#4A5568;stroke-width:1;" fill="none"/><text x="189" y="624.917" fill="#2D3748" font-size="11" textLength="69.088" font-family="Arial">F17 Resumen</text><text x="201.219" y="637.565" fill="#2D3748" font-size="11" textLength="44.65" font-family="Arial">del panel</text></g><g class="link" data-entity-1="ent0017" data-entity-2="ent0011" id="lnk53" data-link-type="dependency"><polygon points="1413.017,916.951,1409.42,907.782,1409.458,913.439,1403.801,913.477,1413.017,916.951" fill="#4A5568" style="stroke:#4A5568;stroke-width:1;stroke-linejoin:miter;stroke-miterlimit:10;"/><path d="M1360.518,865.154 C1377.486,881.895 1393.997,898.185 1409.458,913.439" style="stroke:#4A5568;stroke-width:1;" fill="none"/><text x="1394" y="895.417" fill="#2D3748" font-size="11" textLength="89.284" font-family="Arial">Estado de la tarea</text></g><g class="link" data-entity-1="ent0011" data-entity-2="ent0001" id="lnk54" data-link-type="dependency"><polygon points="892.795,309.459,901.138,314.693,897.745,310.167,902.271,306.774,892.795,309.459" fill="#4A5568" style="stroke:#4A5568;stroke-width:1;stroke-linejoin:miter;stroke-miterlimit:10;"/><path d="M1472.945,916.959 C1478.891,911.591 1484.568,905.562 1489,899.099 C1507.044,872.787 1512,863.003 1512,831.099 C1512,487.599 1512,487.599 1512,487.599 C1512,326.57 1317.567,434.483 1166,380.099 C1133.916,368.587 1127.658,360.863 1095,351.099 C1024.301,329.96 943.615,316.728 897.745,310.167" style="stroke:#4A5568;stroke-width:1;" fill="none"/><text x="1514" y="624.917" fill="#2D3748" font-size="11" textLength="65.431" font-family="Arial">F15.4 Estado</text><text x="1520.725" y="637.565" fill="#2D3748" font-size="11" textLength="51.981" font-family="Arial">de la tarea</text></g><g class="legend" data-source-line="86"><rect x="975.862" y="990.099" width="596.742" height="191.085" fill="none" style="stroke:#9AA5B1;stroke-width:1;" rx="7.5" ry="7.5"/><rect x="980.862" y="997.099" width="23.338" height="16.099" fill="#D5EBE3" style="stroke:none;"/><text x="980.862" y="1010.23" fill="#000" font-size="14" textLength="23.338" font-family="Arial">      </text><text x="1008.09" y="1010.23" fill="#000" font-size="14" textLength="206.247" font-family="Arial">Entidad externa: persona usuaria</text><rect x="980.862" y="1013.197" width="23.338" height="16.099" fill="#FFE9AE" style="stroke:none;"/><text x="980.862" y="1026.329" fill="#000" font-size="14" textLength="23.338" font-family="Arial">      </text><text x="1008.09" y="1026.329" fill="#000" font-size="14" textLength="228.006" font-family="Arial">Entidad externa: sistema de terceros</text><rect x="980.862" y="1029.296" width="23.338" height="16.099" fill="#D6E2F3" style="stroke:none;"/><text x="980.862" y="1042.428" fill="#000" font-size="14" textLength="23.338" font-family="Arial">      </text><text x="1008.09" y="1042.428" fill="#000" font-size="14" textLength="162.661" font-family="Arial">Subproceso del proceso 4</text><rect x="980.862" y="1045.395" width="23.338" height="16.099" fill="#EDE7F6" style="stroke:none;"/><text x="980.862" y="1058.526" fill="#000" font-size="14" textLength="23.338" font-family="Arial">      </text><text x="1008.09" y="1058.526" fill="#000" font-size="14" textLength="247.461" font-family="Arial">Subproceso exclusivo del plan premium</text><rect x="980.862" y="1061.493" width="23.338" height="16.099" fill="#F1F1F1" style="stroke:none;"/><text x="980.862" y="1074.625" fill="#000" font-size="14" textLength="23.338" font-family="Arial">      </text><text x="1008.09" y="1074.625" fill="#000" font-size="14" textLength="162.647" font-family="Arial">Proceso vecino del nivel 1</text><rect x="980.862" y="1077.592" width="23.338" height="16.099" fill="#E3F1EC" style="stroke:none;"/><text x="980.862" y="1090.724" fill="#000" font-size="14" textLength="23.338" font-family="Arial">      </text><text x="1008.09" y="1090.724" fill="#000" font-size="14" textLength="140.875" font-family="Arial">Almacén en Supabase</text><rect x="980.862" y="1093.69" width="23.338" height="16.099" fill="#EDEFF2" style="stroke:none;"/><text x="980.862" y="1106.822" fill="#000" font-size="14" textLength="23.338" font-family="Arial">      </text><text x="1008.09" y="1106.822" fill="#000" font-size="14" textLength="113.613" font-family="Arial">Almacén en Redis</text><line x1="980.862" y1="997.099" x2="1259.44" y2="997.099" style="stroke:#000;stroke-width:1;"/><line x1="980.862" y1="1013.197" x2="1259.44" y2="1013.197" style="stroke:#000;stroke-width:1;"/><line x1="980.862" y1="1029.296" x2="1259.44" y2="1029.296" style="stroke:#000;stroke-width:1;"/><line x1="980.862" y1="1045.395" x2="1259.44" y2="1045.395" style="stroke:#000;stroke-width:1;"/><line x1="980.862" y1="1061.493" x2="1259.44" y2="1061.493" style="stroke:#000;stroke-width:1;"/><line x1="980.862" y1="1077.592" x2="1259.44" y2="1077.592" style="stroke:#000;stroke-width:1;"/><line x1="980.862" y1="1093.69" x2="1259.44" y2="1093.69" style="stroke:#000;stroke-width:1;"/><line x1="980.862" y1="1109.789" x2="1259.44" y2="1109.789" style="stroke:#000;stroke-width:1;"/><line x1="980.862" y1="997.099" x2="980.862" y2="1109.789" style="stroke:#000;stroke-width:1;"/><line x1="1004.2" y1="997.099" x2="1004.2" y2="1109.789" style="stroke:#000;stroke-width:1;"/><line x1="1259.44" y1="997.099" x2="1259.44" y2="1109.789" style="stroke:#000;stroke-width:1;"/><text x="980.862" y="1124.921" fill="#000" font-size="14" textLength="586.742" font-family="Arial">Coinciden con el nivel 1 los flujos F5.1, F8, F12, F13, F15.4, F17, F24.4, F25.4, F26.4 y F27.4,</text><text x="980.862" y="1141.02" fill="#000" font-size="14" textLength="443.557" font-family="Arial">el enlace desde el proceso 3 y los almacenes D1, D2, D3, D4, D5 y D8.</text><text x="980.862" y="1157.118" fill="#000" font-size="14" textLength="535.377" font-family="Arial">La lectura del CV principal (D3 hacia 4.1, 4.4, 4.5 y 4.6) y los vectores del reporte ATS</text><text x="980.862" y="1173.217" fill="#000" font-size="14" textLength="578.225" font-family="Arial">(F25.4 y F27.4) aparecieron en esta descomposición y se agregaron al nivel 1 el 2026-09-22.</text></g><?plantuml-src XLZDRXj74hxFKzJQXqW19Pd_if0DG6j8h83Th615EX4mMZCjgkEPxadt36CQFkn3x6blUymXftq4lSa-IRxgdZz6L2p3eZHTN_r-LTMZRoXUnQJLLcOqeXJV2siIwGnDw6Yv5LabB2KcBqIfxbMcKf4Udr8i7JypMj8UWl51rn0_KseIT_PcU98-fATvUXfzGtVIgWULYDGmSFHcD3jvy_PaD8G9NLf1JjgjWh8pKIZyByvAuJxYDosodLFkjDZHaQtqXroKoUFnW5YanVY77wJUA2tFlXt071-pfkqm74hM05GPFbFX7k-DiAd_3M4yg4pMHgJ8LBaxsOZYc7RxTW3_u3twBEtPjnpM3wOKYNhwdxuWAvFowRzwKsM6_afIbvmoafzAQRKO86fLE4cwogKLgO18dRq19KYlJgsX-3KUYomNoTElskTHbCQTHdyfhDZaWZAnCrL9BfSbt8XAKr1fwDwKfSafLUo1CZfo7vKkX1KvkKSa_1UbD_GWCYTx9wby45LMhf3z7qGkQM6Lo0wVtwZFaeQZtk72MlFBfScCfTUJnNGwE__ZOOSR7ZggiQDuF9_qiUyHWT2RJBupDfNs9HEtJYR2VKKe5gMu_wfK9ZTIf-z4yd5ZJQNJMcxblvxBzNMzNIocxuPHLAeoatlTzFz__PkkczwueCFT54MsYPPUNKlhZ1PhNJb8Al6AXADRUXrFb--Mupr9QxPIfiPAnmovMgnrB6Ln8-L7qFKo4nMU7fNWdJbUwtyMKY-kw6WB1Gmvzegl5XpXykrY6LKXbVHglDOBK5jzXgD59LrfrlgeQN30bJO1V3q6UCZ_eWuzEHskzQN8aYe3FZCEEdGfVf9khU7FVkH1pMI8y6RBqMhSLpDQw-Md8iEai3meu39O21AlDGO5ExwZ3JAK2fkPMi_ea1w4iyHWaPj6Js5iATTwXnytoc7am4r1g8oneODhRUD3sYP8ZiszghMkTT7YnviQCpc4cVOI2altgE6ZyDdm8wRBm_GGUiQrArNkuGZWyev20b0L1_vXUiXSLNbTaycCNY_ZvNmrwokPTsxxJEPIimCOt4BBh4RE3va_N-ih_M0QCEZWQm3d4Kef446DFc_HKLet7BsAGOPRJsGGOKT51dFE0s8KVJbU3PUNVN4K7Gs06KovW2aRAXkF3icYiB59E1ICHkw0oxiWFJuaZS9TUpBNvYU7X52fzmtFM2LpxHbVu-aXAFAqzBbXJtnU77CiU_ejLsKJyxclpMerYY8qpyd9zvxy5tILyfO8Mz7MdH9QZvFc4n8X2HqW96b0ZwBs33E0MH6wUx16biigHT87fF2H2yv-8cqmac0tI1SX1psDmHmdlKhAohQTvgfQQnJtNVwHvuhVzY1aOPLEL86zmOSiX50nxjg4D5nfpxbPsMWO3TYyffHG8J9Ech4ACxR6XNQ9edWF22BLvqKOc14Vi00cmmMjHcXLkj8-cX0kvmTvwKqIf8Gxm0SU0TQfNurcWDVZny-4C2_01ip-9d-DHH3YWlx1bukR1ENh1JDec_qvEW8iM1m3tjAk7cgfwSepRiiJtVOUhQQdGxhhnbPeQ7_9YLYYTQqdmpaRag1fAt7BceOZg7hVJCPdOphgV9bqLDc16WvX_Lmffz1N7JycB_EZhUBafIfEElvSueB07K5-L7hld5UPFltMYRvOSDxNVEsoGjerjdScxYqQ8Sd45b6kHbCWhfkdEogVVhKvbXlQJzIKvvdRCMFICkDwJrUuCzURSZMQG-2kthBikLCRNVTswtEJzL6JTTuXKTVZNBQ_xVVsWy8CndMrI_FqpzfmkcTdtDhXeHP8IRq55BNCcZ7Yd6uCgAymGpm0kaszWvYOmvxiWHgs3lBvZMpA4Ppig3JhKsc_EX6VVgsPOHAbSgr-WMZmKcB1sbxHPctHEazgERnOj8P2eiQq7sbNa3axQsmY_S3YWCDOvixk3U6kgHdmz9yCgephHWuRdFSCpdtZxszZM3slbRmuHCzxEfZ6o-ThEOh2JPKmJ1_BYEZBT_KbydloNrzekVzgSj5KaEgx9tq9i713V1c6rx9IvfvGU88rWv1hQBWIjD2RwhwvIUw_QDRYuUPoI5n-IhBAgMqDPDRL5v_MItyLRR7NUpVMlVVInfXVuYrWqRnkOVNSL4LOx9rVsDe7HT_BL8LmBmst7rQvPsVF7j-27xBg9tpmq1wWmGRSblnjF0Wbv8_v872TFy8ZJzmT-Q4oW0c-WUbC9Cn0b-wzUeyXnuRyMwDaciUm5CD831inj86REmpMK-ZvEruXfL_ppsO77Q5_7x4k14tOL-yFBh70uZ9wN5lPTWEklLFx6KPq52PhxVKnNfn1nqI15JvVV8Dax_rV3vmAQmcxH9BO-5iwn4INk_xV24Qd4GWTQFqx?></g></svg>